<?xml version="1.0" encoding="UTF-8"?>
<svg version="1.1" xmlns="http://www.w3.org/2000/svg" width="1254" height="1254">
<path d="M0 0 C413.82 0 827.64 0 1254 0 C1254 413.82 1254 827.64 1254 1254 C840.18 1254 426.36 1254 0 1254 C0 840.18 0 426.36 0 0 Z " fill="#000714" transform="translate(0,0)"/>
<path d="M0 0 C6.16056433 2.05352144 9.62994133 11.31594643 12.52734375 16.9921875 C13.7598285 19.6369724 14.9078006 22.29451371 16 25 C16.44472656 26.08474609 16.44472656 26.08474609 16.8984375 27.19140625 C25.660902 50.74595191 21.66862983 78.80417515 11.8125 101.3125 C10.89421975 103.21771696 9.95348175 105.11215392 9 107 C8.66371582 107.67901367 8.32743164 108.35802734 7.98095703 109.05761719 C-2.61768868 130.36450254 -16.28583664 149.18002686 -32.58203125 166.48046875 C-34.05141835 168.05510121 -35.49652939 169.64934399 -36.9375 171.25 C-43.59150388 178.61844751 -50.54204024 185.4496839 -58 192 C-58.53318848 192.47260254 -59.06637695 192.94520508 -59.61572266 193.43212891 C-68.3462671 201.15222947 -77.42999432 208.33791223 -86.75830078 215.3203125 C-89.01030231 217.00771944 -91.25309337 218.70690442 -93.49609375 220.40625 C-119.85303746 240.24055821 -148.2491321 257.16055555 -177.36523438 272.59667969 C-179.68508979 273.83227354 -181.99337223 275.08584143 -184.296875 276.3515625 C-235.30172764 304.20820324 -291.7528781 325.1290136 -348.08081055 339.25268555 C-351.46195328 340.11826035 -354.82483114 341.04428382 -358.19140625 341.96484375 C-366.13309594 344.08503698 -374.12817298 345.83209411 -382.1875 347.4375 C-382.92768372 347.58585297 -383.66786743 347.73420593 -384.43048096 347.88705444 C-396.19564162 350.22843357 -407.99274675 352.17044272 -419.875 353.8125 C-420.58570648 353.91150604 -421.29641296 354.01051208 -422.02865601 354.11251831 C-427.01269489 354.79947517 -432.00269923 355.41789535 -437 356 C-437.77752625 356.09289307 -438.55505249 356.18578613 -439.35614014 356.28149414 C-454.52686303 358.05417767 -469.61047566 358.40212261 -484.875 358.375 C-486.08344574 358.37412384 -487.29189148 358.37324768 -488.53695679 358.37234497 C-533.95269171 358.26392017 -585.01492492 351.51754375 -619 318 C-634.07273747 301.86796341 -641.94121187 282.83426241 -641.2578125 260.703125 C-639.41602033 221.73142178 -613.76088843 189.72655887 -587.4375 163.1875 C-586.14404663 161.87990723 -586.14404663 161.87990723 -584.82446289 160.54589844 C-578.85791525 154.6092937 -572.59368405 149.22585531 -566 144 C-564.60648538 142.87926109 -563.21322671 141.7582038 -561.8203125 140.63671875 C-560.58905874 139.6529983 -559.35730354 138.66990508 -558.125 137.6875 C-557.50109375 137.18927734 -556.8771875 136.69105469 -556.234375 136.17773438 C-555.03698491 135.2215906 -553.83940653 134.26568258 -552.64160156 133.31005859 C-550.42613633 131.54203562 -548.21293446 129.77118899 -546 128 C-545.34 128.33 -544.68 128.66 -544 129 C-544.67204468 129.61875 -544.67204468 129.61875 -545.35766602 130.25 C-547.42990424 132.16242482 -549.49619932 134.08116219 -551.5625 136 C-552.26697266 136.64839844 -552.97144531 137.29679688 -553.69726562 137.96484375 C-558.4608519 142.39914987 -562.77838837 147.05276952 -567 152 C-568.03205907 153.15771639 -569.06713388 154.31275268 -570.10546875 155.46484375 C-595.17245157 183.56013366 -615.62380945 216.80847585 -614.17919922 255.50390625 C-613.00029581 271.92503497 -604.22346691 286.4412514 -592.4375 297.5625 C-579.66119556 308.16358236 -564.06160326 314.9041524 -548.15625 319.140625 C-545 320 -545 320 -542.34765625 320.98046875 C-537.29672487 322.51873373 -532.14737986 323.2473909 -526.9375 324.0625 C-525.88111328 324.23587891 -524.82472656 324.40925781 -523.73632812 324.58789062 C-483.08674486 331.04531073 -442.01995278 325.98864985 -401.94189453 318.36779785 C-400.10139778 318.0192049 -398.25971353 317.67689883 -396.41796875 317.33496094 C-382.67648869 314.77942958 -369.20306921 311.67920247 -355.77441406 307.80029297 C-352.93369506 306.98087402 -350.08835337 306.17918112 -347.2421875 305.37890625 C-302.56193595 292.70783433 -259.46814188 275.87786325 -217.81640625 255.38476562 C-215.15291862 254.07518675 -212.4833814 252.77878834 -209.8125 251.484375 C-186.9805579 240.33581717 -164.91553145 227.4830825 -143.82006836 213.32543945 C-141.93698952 212.06215754 -140.04985282 210.80512615 -138.16210938 209.54882812 C-126.48697004 201.75711167 -114.98832303 193.72392104 -103.9375 185.0625 C-103.18001465 184.47041748 -102.4225293 183.87833496 -101.64208984 183.26831055 C-91.68332229 175.44296318 -82.13371736 167.23866294 -72.84765625 158.62890625 C-70.17359994 156.16026441 -67.46840086 153.73208428 -64.75 151.3125 C-57.67366583 144.94946032 -51.17108937 138.23845473 -45 131 C-44.17628906 130.05382812 -43.35257813 129.10765625 -42.50390625 128.1328125 C-32.17169827 116.19556518 -22.89295049 103.69039467 -15.1015625 89.94335938 C-14.35890754 88.63317908 -13.60872248 87.32724222 -12.8515625 86.02539062 C-2.4165797 68.00928776 4.37649532 48.56426969 4.3125 27.625 C4.32861328 26.57828125 4.34472656 25.5315625 4.36132812 24.453125 C4.36664303 15.84297801 2.71509835 8.14529504 0 0 Z " fill="#00C5DE" transform="translate(941,356)"/>
<path d="M0 0 C11.67272968 7.32252182 18.7661229 17.12091478 21.99609375 30.5234375 C22.54060832 34.25861641 22.46898916 37.8031377 22.44140625 41.578125 C24.05982422 41.53884888 24.05982422 41.53884888 25.7109375 41.4987793 C29.74376391 41.40774644 33.77650098 41.35068488 37.81005859 41.3034668 C39.55012321 41.27844267 41.29008398 41.24441206 43.02978516 41.20092773 C45.5422538 41.1397358 48.05332405 41.11179541 50.56640625 41.08984375 C51.3344458 41.06403732 52.10248535 41.0382309 52.89379883 41.01164246 C58.83469572 41.00861122 62.85261476 42.81171479 67.44140625 46.578125 C71.07578414 51.14439466 72.53478913 54.82158959 72.6184082 60.57714844 C72.63766106 61.73920807 72.63766106 61.73920807 72.65730286 62.92474365 C72.66468979 63.75395325 72.67207672 64.58316284 72.6796875 65.4375 C72.68775925 66.30070862 72.69583099 67.16391724 72.70414734 68.05328369 C72.71795986 69.87892668 72.72869465 71.70459519 72.73657227 73.53027344 C72.74808437 75.38842386 72.76852403 77.24654142 72.7980957 79.10449219 C72.84096157 81.79905514 72.85696759 84.49263756 72.8671875 87.1875 C72.88469559 88.00861267 72.90220367 88.82972534 72.92024231 89.67572021 C72.89667751 96.01736921 71.44323536 101.48479934 66.92304993 106.14276123 C62.33471049 110.06345943 59.84390151 110.70409965 53.90130615 110.71856689 C53.22187745 110.72153802 52.54244875 110.72450914 51.84243131 110.7275703 C49.55477262 110.73627526 47.26716615 110.73776706 44.97949219 110.73925781 C43.34363187 110.74388478 41.70777264 110.74890928 40.07191467 110.75430298 C35.61929332 110.76744218 31.16668706 110.7738751 26.71404934 110.77831364 C23.9329934 110.7812424 21.15194161 110.78534688 18.37088776 110.78981781 C9.6719975 110.80349783 0.97311669 110.81316155 -7.72578359 110.8170197 C-17.77145287 110.82149941 -27.81698603 110.83904112 -37.86261392 110.8680203 C-45.62404543 110.88963361 -53.38543865 110.89972382 -61.14689994 110.90106082 C-65.78386141 110.90210926 -70.420695 110.90802516 -75.05762482 110.92588043 C-79.42098236 110.94235466 -83.78411581 110.94451979 -88.14749336 110.93574142 C-89.74786288 110.93497065 -91.3482444 110.93931906 -92.9485836 110.94919968 C-95.13617532 110.96191233 -97.32297261 110.95604672 -99.51055908 110.94561768 C-100.73394611 110.94708424 -101.95733315 110.9485508 -103.21779251 110.9500618 C-108.54664075 110.35679252 -112.46746755 108.25983838 -115.87109375 104.140625 C-116.36222656 103.56441406 -116.85335937 102.98820312 -117.359375 102.39453125 C-119.43237001 99.25465282 -119.68477432 96.0767055 -119.7355957 92.37963867 C-119.74843094 91.56166306 -119.76126617 90.74368744 -119.77449036 89.90092468 C-119.78187729 89.02483047 -119.78926422 88.14873627 -119.796875 87.24609375 C-119.80494675 86.33612137 -119.81301849 85.42614899 -119.82133484 84.48860168 C-119.83514883 82.5646046 -119.84588296 80.64058329 -119.85375977 78.71655273 C-119.86528464 76.75456534 -119.88574443 74.79260942 -119.9152832 72.83081055 C-119.95804924 69.98985574 -119.97414068 67.14983087 -119.984375 64.30859375 C-120.01063713 63.00356148 -120.01063713 63.00356148 -120.03742981 61.67216492 C-120.0141113 55.07703991 -118.54086045 50.76016076 -113.92578125 45.8359375 C-108.63993609 41.82312311 -105.57582618 41.43944256 -99.05078125 41.48046875 C-97.78985153 41.48259117 -97.78985153 41.48259117 -96.50344849 41.48475647 C-93.813461 41.49036263 -91.12355616 41.50291614 -88.43359375 41.515625 C-86.61198037 41.52063921 -84.79036568 41.52520225 -82.96875 41.52929688 C-78.49866598 41.54033406 -74.02864389 41.5576028 -69.55859375 41.578125 C-69.57156494 40.49764893 -69.58453613 39.41717285 -69.59790039 38.30395508 C-69.48331809 27.44283378 -65.59499626 17.74150779 -58.55859375 9.578125 C-57.96175781 8.86011719 -57.36492188 8.14210937 -56.75 7.40234375 C-41.76643545 -9.13876389 -18.61636735 -10.3455843 0 0 Z " fill="#005AAB" transform="translate(636.55859375,224.421875)"/>
<path d="M0 0 C0 4.17688382 -2.31675838 5.83861524 -5.0625 8.6875 C-6.08532599 9.77408995 -7.10746264 10.8613292 -8.12890625 11.94921875 C-8.62664551 12.47563965 -9.12438477 13.00206055 -9.63720703 13.54443359 C-11.30399052 15.32468496 -12.90881079 17.15204188 -14.5 19 C-24.95902919 31.02044824 -35.82501424 42.94222907 -47.98828125 53.26953125 C-50.48283603 55.41533274 -52.89218982 57.64585677 -55.3125 59.875 C-60.18491751 64.31416561 -65.20617066 68.50967079 -70.33642578 72.64550781 C-72.27706834 74.22559072 -74.19940922 75.8266038 -76.12109375 77.4296875 C-77.2201001 78.34379395 -77.2201001 78.34379395 -78.34130859 79.27636719 C-79.77494804 80.46954348 -81.20642722 81.66532244 -82.63525391 82.86425781 C-83.31378418 83.42725586 -83.99231445 83.99025391 -84.69140625 84.5703125 C-85.37460937 85.15707764 -86.0578125 85.74384277 -86.76171875 86.34838867 C-89 88 -89 88 -91.72265625 89.14575195 C-95.14821967 90.74996423 -96.79582924 91.88529905 -99 95 C-100.79450653 102.74753703 -100.0794691 111.04878339 -99.875 118.9375 C-99.80314395 123.27997923 -99.76026863 127.62181372 -99.7421875 131.96484375 C-99.73706146 133.01065613 -99.73193542 134.05646851 -99.72665405 135.13397217 C-99.83206216 150.69343951 -103.89723454 163.52853307 -114.4375 175.1875 C-122.13433327 182.61488553 -133.27884124 188.11632827 -144.08699989 188.13142776 C-145.11988219 188.13526891 -146.15276448 188.13911005 -147.21694624 188.1430676 C-148.91681844 188.14176787 -148.91681844 188.14176787 -150.65103149 188.14044189 C-151.85612503 188.14341302 -153.06121857 188.14638414 -154.3028301 188.1494453 C-157.64936816 188.15662581 -160.99585489 188.15930463 -164.34239697 188.16004276 C-167.95128279 188.16189409 -171.56015748 188.16944191 -175.16903687 188.17617798 C-183.06178017 188.18975961 -190.9545184 188.19578597 -198.84727144 188.20018864 C-203.77684798 188.20295178 -208.70642256 188.20718931 -213.63599777 188.21169281 C-227.28773945 188.22388608 -240.93947957 188.23418474 -254.59122658 188.2375679 C-255.90186182 188.23789725 -255.90186182 188.23789725 -257.23897453 188.23823325 C-258.11481215 188.23845153 -258.99064976 188.23866981 -259.8930279 188.2388947 C-261.66778032 188.23933817 -263.44253274 188.23978473 -265.21728516 188.24023438 C-266.09762202 188.2404558 -266.97795888 188.24067723 -267.88497262 188.24090537 C-282.14314366 188.24485167 -296.40126355 188.26230031 -310.65941484 188.2855939 C-325.30229249 188.30932262 -339.94514448 188.32177047 -354.58804166 188.32293582 C-362.80771188 188.32385181 -371.02731547 188.32958489 -379.24696732 188.34775543 C-386.24776843 188.36317706 -393.24848234 188.3682648 -400.24929722 188.36001733 C-403.81914934 188.35611788 -407.38882593 188.35700563 -410.95865631 188.37107468 C-414.83486825 188.38621097 -418.71083489 188.377926 -422.58706665 188.36749268 C-423.70693045 188.37554908 -424.82679425 188.38360548 -425.98059332 188.39190602 C-434.78005919 188.33660272 -442.71306196 186.82379581 -450.3125 182.1875 C-451.09238281 181.72730469 -451.87226563 181.26710938 -452.67578125 180.79296875 C-455.63329091 178.5114613 -457.63923002 175.89533936 -460 173 C-458.84516113 173.01571045 -457.69032227 173.0314209 -456.50048828 173.04760742 C-419.42208762 173.50563103 -380.7336805 173.35020518 -344.65722656 163.64086914 C-341.48480243 162.8757448 -338.38336145 162.51892339 -335.1328125 162.30859375 C-332.86797689 162.05946536 -332.86797689 162.05946536 -330.34696674 160.99559402 C-326.59371395 159.87914551 -323.18913778 159.72836762 -319.3157196 159.76190186 C-318.56148596 159.76034285 -317.80725232 159.75878384 -317.03016311 159.75717759 C-314.51309603 159.7542317 -311.99628986 159.76537855 -309.47924805 159.77636719 C-307.67032881 159.77689165 -305.86140907 159.77645523 -304.05249023 159.77513123 C-300.16145641 159.77379896 -296.27048576 159.7782004 -292.37946129 159.78673553 C-286.22256427 159.79913062 -280.06578425 159.7921613 -273.90888977 159.78131104 C-256.40252553 159.75286243 -238.89626194 159.74041059 -221.38989258 159.77001953 C-211.71779141 159.78621581 -202.04594573 159.78105147 -192.37387115 159.75222325 C-187.25887073 159.73794248 -182.14440209 159.73488145 -177.02942467 159.75844574 C-172.21682334 159.78061434 -167.40504738 159.77501896 -162.59247589 159.74846077 C-160.83049799 159.74370062 -159.06845736 159.74911738 -157.30655098 159.76569176 C-145.21888677 159.98876284 -145.21888677 159.98876284 -134.63389587 154.63148117 C-128.64292822 148.64936745 -127.42383402 143.68681312 -127.28105164 135.25061035 C-127.28498428 134.02322144 -127.28891693 132.79583252 -127.29296875 131.53125 C-127.27784744 130.25519897 -127.26272614 128.97914795 -127.24714661 127.66442871 C-127.21159796 124.29724899 -127.19712126 120.93135515 -127.19311523 117.56408691 C-127.18374057 114.11808079 -127.14630047 110.67238708 -127.11132812 107.2265625 C-127.04854109 100.48436787 -127.01355428 93.74246375 -127 87 C-126.26234406 86.61187637 -125.52468811 86.22375275 -124.76467896 85.8238678 C-83.34271648 64.00644841 -44.03567961 38.18478306 -8.66455078 7.44287109 C-5.787489 4.94896744 -2.89327262 2.47505975 0 0 Z " fill="#002B67" transform="translate(895,555)"/>
<path d="M0 0 C1.28361168 0.00212242 1.28361168 0.00212242 2.59315491 0.00428772 C5.30302556 0.00984635 8.01281093 0.022391 10.72265625 0.03515625 C12.56966026 0.0401766 14.41666557 0.04473857 16.26367188 0.04882812 C20.77089193 0.05894761 25.2779296 0.07853082 29.78515625 0.09765625 C29.78515625 9.00765625 29.78515625 17.91765625 29.78515625 27.09765625 C25.91796875 27.13632812 25.91796875 27.13632812 21.97265625 27.17578125 C19.4538315 27.21428112 16.935206 27.25941551 14.41650391 27.30517578 C12.67669311 27.33326328 10.9367576 27.35453819 9.19677734 27.36865234 C6.68392655 27.39025278 4.17255592 27.43698611 1.66015625 27.48828125 C0.8921167 27.48950989 0.12407715 27.49073853 -0.66723633 27.49200439 C-7.64976916 27.67802539 -12.7636561 29.97329362 -18.02734375 34.53515625 C-21.80576435 38.96130609 -23.58856583 42.04101609 -23.59960461 47.92909718 C-23.61378942 49.68921122 -23.61378942 49.68921122 -23.62826079 51.48488313 C-23.62341322 52.76989565 -23.61856564 54.05490818 -23.61357117 55.37886047 C-23.61901074 56.76086468 -23.62576235 58.14286423 -23.63371307 59.52485627 C-23.65175835 63.32173935 -23.6511789 67.11842705 -23.6475836 70.91534293 C-23.6469604 75.01007674 -23.66357373 79.10474462 -23.67810059 83.19944763 C-23.70090612 90.29355162 -23.71277506 97.38760644 -23.71722984 104.48174477 C-23.7236865 114.73868238 -23.74661534 124.99553104 -23.77357314 135.25243285 C-23.8168619 151.89329234 -23.84681672 168.53414809 -23.8684082 185.17504883 C-23.88941163 201.34075764 -23.91668117 217.50643584 -23.95239258 233.67211914 C-23.9545914 234.66846205 -23.95679023 235.66480495 -23.95905568 236.69134007 C-23.97012518 241.68966693 -23.98131802 246.6879935 -23.99257219 251.68631995 C-24.08578687 293.1567385 -24.15737113 334.62717375 -24.21484375 376.09765625 C-26.65242384 376.12518225 -29.08967916 376.14474193 -31.52734375 376.16015625 C-32.19830078 376.16853516 -32.86925781 376.17691406 -33.56054688 376.18554688 C-39.48676143 376.21336948 -45.32268654 375.70501749 -51.21484375 375.09765625 C-51.26062992 332.84564769 -51.2958674 290.593642 -51.31697441 248.34161354 C-51.3194758 243.3524168 -51.32206444 238.36322011 -51.32470703 233.37402344 C-51.32523165 232.38077182 -51.32575627 231.38752021 -51.32629679 230.36417006 C-51.33499739 214.28543355 -51.35076548 198.20671136 -51.36914934 182.12798335 C-51.38785797 165.62749488 -51.39896252 149.12701391 -51.40302074 132.62651527 C-51.40576379 122.44633891 -51.41442498 112.26620301 -51.43067668 102.08603911 C-51.44125544 95.1033981 -51.44444235 88.12077799 -51.4418465 81.13812955 C-51.44056661 77.11063301 -51.44251709 73.08320714 -51.4532547 69.05572319 C-51.46302452 65.36418557 -51.46345456 61.67276579 -51.45664154 57.98122261 C-51.45540335 56.02218006 -51.46399561 54.06313878 -51.47300637 52.10411656 C-51.4401236 42.36106886 -50.70034581 33.89185313 -45.83984375 25.28515625 C-45.25460937 24.22683594 -44.669375 23.16851562 -44.06640625 22.078125 C-37.80365134 11.99693935 -27.766376 4.19280365 -16.21484375 1.09765625 C-10.75556216 0.14864911 -5.51731285 -0.03485707 0 0 Z " fill="#005BAC" transform="translate(472.21484375,291.90234375)"/>
<path d="M0 0 C8.25 0 16.5 0 25 0 C26.32773437 2.59488281 27.65546875 5.18976562 29.0234375 7.86328125 C30.3472368 10.4486179 31.67140491 13.03376534 32.99560547 15.61889648 C33.89768131 17.38041909 34.79938924 19.14213016 35.70068359 20.90405273 C42.04953859 33.31446818 48.48142062 45.67786711 55 58 C55.83023682 56.32381592 55.83023682 56.32381592 56.67724609 54.61376953 C58.77903767 50.373331 60.88655467 46.13575784 62.99560547 41.89892578 C63.8988044 40.08261671 64.80055346 38.26558577 65.70068359 36.44775391 C71.81564183 24.10168739 78.22564442 11.9985433 85 0 C92.92 0 100.84 0 109 0 C109 34.32 109 68.64 109 104 C102.4 104 95.8 104 89 104 C88.67 81.89 88.34 59.78 88 37 C82.43625522 47.51365202 82.43625522 47.51365202 76.87304688 58.02758789 C71.93335211 67.36136317 66.97596405 76.68551005 62 86 C57.38 86 52.76 86 48 86 C42.6162121 76.68890788 37.53235831 67.2819673 32.80322266 57.62011719 C29.0443203 49.96835074 25.02263696 42.54244429 21 35 C20.67 57.77 20.34 80.54 20 104 C13.4 104 6.8 104 0 104 C0 69.68 0 35.36 0 0 Z " fill="#00428A" transform="translate(539,806)"/>
<path d="M0 0 C41.88069655 -0.59829566 41.88069655 -0.59829566 57.3125 13.8125 C61.1974167 17.93871587 65.04630761 22.63191062 67 28 C66.38671875 29.8984375 66.38671875 29.8984375 65 32 C64.41605469 32.97710937 63.83210937 33.95421875 63.23046875 34.9609375 C62.21919922 36.65089844 62.21919922 36.65089844 61.1875 38.375 C57.16653094 45.29681752 54.3210944 52.32456285 52 60 C51.6803125 61.01191406 51.360625 62.02382813 51.03125 63.06640625 C46.0623193 81.07878004 48.18635583 101.9804847 54.9765625 119.171875 C56 122 56 122 56 125 C56.66 125 57.32 125 58 125 C58.51949219 125.94101562 59.03898438 126.88203125 59.57421875 127.8515625 C60.27832029 129.10955726 60.98276585 130.36735952 61.6875 131.625 C62.02716797 132.24246094 62.36683594 132.85992187 62.71679688 133.49609375 C63.2340332 134.41455078 63.2340332 134.41455078 63.76171875 135.3515625 C64.07069092 135.90666504 64.37966309 136.46176758 64.69799805 137.03369141 C66.03701688 139.21525322 66.03701688 139.21525322 68.5349884 141.41026306 C72.23771254 145.86695894 71.74579217 150.84729592 71.7421875 156.40209961 C71.76058685 157.54265305 71.77898621 158.68320648 71.79794312 159.85832214 C71.85047538 163.62325024 71.86516473 167.38707697 71.875 171.15234375 C71.89360846 173.7725924 71.9128228 176.39283682 71.93261719 179.01307678 C71.96911763 184.50316362 71.98048914 189.99295884 71.98144531 195.4831543 C71.98327951 201.81894153 72.04485803 208.15226129 72.13408089 214.48736566 C72.21705119 220.59579897 72.23900125 226.70304431 72.23834229 232.81201363 C72.24608705 235.40484702 72.27180064 237.99769163 72.31585693 240.59016228 C72.3721614 244.21840388 72.35873827 247.84009767 72.328125 251.46850586 C72.35981781 252.5372998 72.39151062 253.60609375 72.42416382 254.70727539 C72.35392181 257.83108209 72.1739189 260.09910557 71 263 C67.6543879 266.03647026 64.01700777 267.9819809 60 270 C58.63168969 270.86410707 57.27267112 271.74359411 55.93359375 272.65234375 C55.0528418 273.22758789 55.0528418 273.22758789 54.15429688 273.81445312 C52.97261439 274.58745362 51.79304139 275.36368538 50.61523438 276.14257812 C46.2233622 279 46.2233622 279 44 279 C43.99668985 277.80655472 43.99337971 276.61310944 43.98996925 275.38349915 C43.91092153 247.04231166 43.82169019 218.7011687 43.71994839 190.36005366 C43.70742978 186.87040713 43.69499697 183.3807603 43.68261719 179.89111328 C43.68015119 179.19639852 43.6776852 178.50168376 43.67514448 177.78591704 C43.6354399 166.54281185 43.60268239 155.29969663 43.57250018 144.0565623 C43.54136676 132.51680588 43.50260221 120.97709611 43.45720994 109.43738651 C43.43196059 102.95708983 43.41017458 96.47682314 43.39665604 89.99649048 C43.38382166 83.89640634 43.36175209 77.79642517 43.33261681 71.69639778 C43.32355186 69.45831478 43.31785332 67.2202152 43.31578636 64.98211479 C43.31245624 61.92383226 43.29695814 58.86584032 43.2784729 55.80761719 C43.28040763 54.92432897 43.28234237 54.04104074 43.28433573 53.13098621 C43.21610968 45.56803943 42.60364212 38.60364212 37 33 C31.38791815 28.79093861 27.6044459 27.91146755 20.703125 27.68359375 C19.61676758 27.64548584 18.53041016 27.60737793 17.41113281 27.56811523 C16.03795898 27.52501221 14.66478516 27.48190918 13.25 27.4375 C8.8775 27.293125 4.505 27.14875 0 27 C0 18.09 0 9.18 0 0 Z " fill="#00397C" transform="translate(724,292)"/>
<path d="M0 0 C1.03016332 0.9688981 2.04203492 1.95966212 3 3 C3.33 1.02 3.66 -0.96 4 -3 C10.27 -3 16.54 -3 23 -3 C23.09074242 6.83229033 23.16396903 16.66429783 23.20724869 26.49691391 C23.22803159 31.06369464 23.25617696 35.63017146 23.30175781 40.19677734 C23.34555031 44.61236769 23.36920683 49.02766763 23.37950897 53.44345856 C23.38684091 55.11940322 23.40115674 56.79533387 23.42292023 58.47115326 C23.58533489 71.50809309 22.88383412 83.20410261 13.28515625 93.08984375 C4.89439671 100.10365813 -3.65313953 101.19060967 -14.1875 101.25 C-15.08275391 101.270625 -15.97800781 101.29125 -16.90039062 101.3125 C-25.26147014 101.36079504 -33.09147028 99.85821309 -40.0625 95 C-40.79597656 94.505 -41.52945313 94.01 -42.28515625 93.5 C-44 92 -44 92 -45 89 C-43.671875 86.30078125 -43.671875 86.30078125 -41.75 83.3125 C-41.12609375 82.31863281 -40.5021875 81.32476563 -39.859375 80.30078125 C-39.24578125 79.54152344 -38.6321875 78.78226563 -38 78 C-34.34774479 78 -33.32229262 79.00883551 -30.3125 81 C-23.11077609 85.06177229 -16.09231973 85.10233289 -8 84 C-3.34672621 82.23884559 -0.61619182 80.25431193 2 76 C2.90369004 72.43871613 2.90369004 72.43871613 3.25 68.6875 C3.39953125 67.43324219 3.5490625 66.17898438 3.703125 64.88671875 C3.85007812 63.45779297 3.85007812 63.45779297 4 62 C3.43152344 62.40992188 2.86304688 62.81984375 2.27734375 63.2421875 C-6.62858105 69.45700647 -14.18898837 70.84502944 -25 70 C-32.09478623 68.58816127 -38.45849026 64.40742235 -42.765625 58.6328125 C-50.4952314 46.28795567 -50.78423034 31.50211531 -48.3828125 17.3671875 C-45.3783014 8.03459107 -38.7198309 1.37351243 -30.17578125 -3.125 C-20.07866141 -7.18560116 -8.90885296 -6.10548803 0 0 Z " fill="#00397C" transform="translate(931,839)"/>
<path d="M0 0 C0.41507813 0.35191406 0.83015625 0.70382812 1.2578125 1.06640625 C-0.18643385 4.30501928 -1.99990997 6.68609788 -4.3671875 9.31640625 C-5.31464844 10.37601562 -5.31464844 10.37601562 -6.28125 11.45703125 C-6.76335937 11.988125 -7.24546875 12.51921875 -7.7421875 13.06640625 C-9.95525228 11.97031284 -12.15108371 10.85087361 -14.3359375 9.69921875 C-17.44212358 8.08767597 -20.58014618 6.56522148 -23.7421875 5.06640625 C-24.59167969 4.64359375 -25.44117188 4.22078125 -26.31640625 3.78515625 C-38.99441518 -1.52103583 -56.96276131 -1.26105008 -69.7421875 3.69140625 C-75.51513491 6.1510635 -80.85492843 9.12893526 -85.7421875 13.06640625 C-86.54914062 13.68902344 -87.35609375 14.31164062 -88.1875 14.953125 C-101.69650677 26.12800674 -108.98605374 41.76206381 -110.7421875 59.06640625 C-112.12948693 77.05925946 -106.429127 93.75904908 -95.4296875 108.00390625 C-85.04995403 119.96163975 -69.53172508 127.89150418 -53.7421875 129.06640625 C-36.24259898 130.04354063 -19.49319206 124.99134228 -5.7421875 114.06640625 C-0.63837555 109.49873825 3.91149594 105.08549961 7.2578125 99.06640625 C8.55986383 102.97256025 7.65094783 103.94089379 5.87109375 107.58203125 C5.34451172 108.66871094 4.81792969 109.75539063 4.27539062 110.875 C3.71271484 112.01066406 3.15003906 113.14632812 2.5703125 114.31640625 C2.02697266 115.43660156 1.48363281 116.55679688 0.92382812 117.7109375 C-0.60537211 120.84330172 -2.16734564 123.95679687 -3.7421875 127.06640625 C-4.10038574 127.80737549 -4.45858398 128.54834473 -4.82763672 129.31176758 C-8.75956531 136.98054449 -16.56776445 138.54457934 -24.203125 141.328125 C-44.64552335 147.53930147 -66.74561537 145.8532373 -85.6796875 136.19140625 C-106.55236602 123.904211 -120.0308774 105.09406701 -126.62109375 81.984375 C-129.2174741 69.00247327 -128.94695582 54.61261781 -124.7421875 42.06640625 C-124.24912109 40.40931641 -124.24912109 40.40931641 -123.74609375 38.71875 C-117.28246676 18.52271134 -103.2260127 2.02722289 -84.43896484 -7.82470703 C-57.41872689 -21.49053094 -23.93330614 -19.17668672 0 0 Z " fill="#00CDE1" transform="translate(913.7421875,311.93359375)"/>
<path d="M0 0 C7.42223634 8.33436659 8.2932087 15.49012664 8.1953125 26.3984375 C8.1924826 27.58853424 8.18965271 28.77863098 8.18673706 30.00479126 C8.17556817 33.79496437 8.15046917 37.58489866 8.125 41.375 C8.11496597 43.94921533 8.10584085 46.52343438 8.09765625 49.09765625 C8.07563954 55.39852911 8.04113191 61.6992241 8 68 C1.73 68 -4.54 68 -11 68 C-11 65.36 -11 62.72 -11 60 C-11.66 60 -12.32 60 -13 60 C-13 60.66 -13 61.32 -13 62 C-14.5390625 63.21875 -14.5390625 63.21875 -16.625 64.5 C-17.29789062 64.9228125 -17.97078125 65.345625 -18.6640625 65.78125 C-24.25248835 68.69695044 -29.18941495 69.36036546 -35.375 69.3125 C-36.13087402 69.30686035 -36.88674805 69.3012207 -37.66552734 69.29541016 C-45.84621092 69.11660707 -51.40692868 67.18936534 -57.52734375 61.54296875 C-62.58534522 56.24347119 -63.39083401 50.40320753 -63.2734375 43.3359375 C-62.6216845 37.76810472 -59.90107408 33.54764434 -55.875 29.75 C-47.57880515 23.45490892 -39.37382217 22.41546172 -29.1875 22.6875 C-27.52944336 22.70200195 -27.52944336 22.70200195 -25.83789062 22.71679688 C-21.08362393 22.78286826 -16.65101458 22.9504184 -12 24 C-12.25620684 22.3934324 -12.53055871 20.7897517 -12.8125 19.1875 C-12.96332031 18.29417969 -13.11414063 17.40085937 -13.26953125 16.48046875 C-14.06839355 13.76775454 -14.80193269 12.72821017 -17 11 C-24.59409044 7.56457814 -33.23798405 8.42210419 -41 11 C-43.41139081 12.22438836 -45.67837273 13.60702364 -48 15 C-48.99 15 -49.98 15 -51 15 C-52.89453125 12.734375 -52.89453125 12.734375 -54.8125 9.75 C-55.45832031 8.77546875 -56.10414063 7.8009375 -56.76953125 6.796875 C-58 4 -58 4 -57.53515625 1.8359375 C-52.37083883 -4.34021819 -42.89495369 -6.78348749 -35.203125 -7.75 C-22.36116025 -8.75229969 -10.35577406 -8.66995038 0 0 Z " fill="#00B5D4" transform="translate(340,842)"/>
<path d="M0 0 C6.6 0 13.2 0 20 0 C20.33 18.81 20.66 37.62 21 57 C32.2874299 44.47360012 32.2874299 44.47360012 37.75 35.625 C40.7131259 31.99263913 42.22335413 30.34869325 46.82373047 29.44580078 C53.90886458 28.88318001 60.93932078 29.28195042 68 30 C63.73889894 35.99081491 59.03295045 41.33448562 53.9375 46.625 C49.4590951 51.29884133 45.07311824 55.96616576 41 61 C42.66595203 64.68825743 44.94557494 67.8652384 47.3125 71.125 C47.74256348 71.72175537 48.17262695 72.31851074 48.61572266 72.93334961 C49.56013787 74.24307011 50.50583768 75.55186501 51.45263672 76.85986328 C53.10984191 79.15192083 54.76038552 81.44867999 56.41015625 83.74609375 C57.56493342 85.35168532 58.71987922 86.95715562 59.875 88.5625 C60.695448 89.70452881 60.695448 89.70452881 61.5324707 90.86962891 C63.75289856 93.94764614 65.97337956 96.96757544 68.3828125 99.90234375 C70 102 70 102 70 104 C50.85525734 106.68873165 50.85525734 106.68873165 44.86181641 102.50878906 C41.18300637 98.56655806 38.6597021 93.95088719 36.18603516 89.18945312 C34.47677904 86.03411989 32.4170542 83.29696357 30.25 80.4375 C29.61578125 79.56996094 28.9815625 78.70242188 28.328125 77.80859375 C27.67070312 76.91333984 27.67070312 76.91333984 27 76 C24.38911529 77.5907377 22.82342353 78.61320589 21 81 C20.12787864 84.74424821 20.16041252 88.41835264 20.1875 92.25 C20.16338624 94.25524978 20.13621452 96.26046594 20.10546875 98.265625 C20.10699951 99.15024414 20.10853027 100.03486328 20.11010742 100.94628906 C20 103 20 103 19 104 C12.73 104 6.46 104 0 104 C0 69.68 0 35.36 0 0 Z " fill="#00B6D6" transform="translate(431,806)"/>
<path d="M0 0 C5.98017472 4.78413978 9.87080297 9.70286738 11.8125 17.25 C12.20647455 21.45321901 12.16277126 25.62524204 12.10546875 29.84375 C12.10122391 31.03101685 12.09697906 32.21828369 12.09260559 33.44152832 C12.07589339 37.2112554 12.03825381 40.98043612 12 44.75 C11.98494358 47.31509641 11.97125685 49.88020126 11.95898438 52.4453125 C11.9260141 58.71375026 11.87428237 64.98178268 11.8125 71.25 C5.8725 71.25 -0.0675 71.25 -6.1875 71.25 C-6.1875 68.61 -6.1875 65.97 -6.1875 63.25 C-6.8475 63.25 -7.5075 63.25 -8.1875 63.25 C-8.4453125 63.85328125 -8.703125 64.4565625 -8.96875 65.078125 C-11.29986579 69.23229289 -14.7384001 70.83055199 -19.1875 72.25 C-22.2126448 72.66758354 -25.19830013 72.78128376 -28.25 72.8125 C-29.00539063 72.82700195 -29.76078125 72.84150391 -30.5390625 72.85644531 C-37.26014674 72.73663468 -42.44022307 70.70511368 -47.46484375 66.21484375 C-48.28662109 65.21130859 -48.28662109 65.21130859 -49.125 64.1875 C-49.97384766 63.18009766 -49.97384766 63.18009766 -50.83984375 62.15234375 C-53.63132861 58.21189991 -53.43691484 54.07636247 -53.5 49.4375 C-53.54350586 48.38852539 -53.54350586 48.38852539 -53.58789062 47.31835938 C-53.65057935 42.16341743 -52.5303013 39.36049708 -49.1875 35.25 C-42.35537497 28.86344834 -36.00749291 26.12849437 -26.73828125 26.1171875 C-25.72572266 26.11589844 -24.71316406 26.11460937 -23.66992188 26.11328125 C-22.62384766 26.11714844 -21.57777344 26.12101563 -20.5 26.125 C-19.44232422 26.12113281 -18.38464844 26.11726562 -17.29492188 26.11328125 C-15.78188477 26.11521484 -15.78188477 26.11521484 -14.23828125 26.1171875 C-12.85636597 26.11887939 -12.85636597 26.11887939 -11.4465332 26.12060547 C-9.1875 26.25 -9.1875 26.25 -7.1875 27.25 C-7.49758884 25.64536551 -7.81066287 24.04130769 -8.125 22.4375 C-8.29902344 21.54417969 -8.47304688 20.65085937 -8.65234375 19.73046875 C-9.16491153 17.13602829 -9.16491153 17.13602829 -10.1875 14.25 C-15.69544268 11.421597 -22.16998716 11.37380379 -28.1875 12.25 C-31.52912699 13.62964249 -34.57347705 15.20911804 -37.69140625 17.03515625 C-40.1875 18.25 -40.1875 18.25 -43.1875 17.25 C-44.828125 15.32421875 -44.828125 15.32421875 -46.4375 12.9375 C-46.97890625 12.15761719 -47.5203125 11.37773438 -48.078125 10.57421875 C-49.1875 8.25 -49.1875 8.25 -49.0703125 6.11328125 C-46.75764091 1.23211156 -39.96253283 -1.02639803 -35.25 -3.0625 C-23.63962347 -7.04597647 -10.66104546 -5.853123 0 0 Z " fill="#003C80" transform="translate(711.1875,838.75)"/>
<path d="M0 0 C5.34540585 4.37547334 8.39580731 9.38245976 9.625 16.1875 C9.89016205 20.35495578 9.85794447 24.50918081 9.8203125 28.68359375 C9.8174826 29.87227554 9.81465271 31.06095734 9.81173706 32.28565979 C9.80058206 36.06554418 9.77548566 39.84518776 9.75 43.625 C9.73996417 46.19465803 9.73083937 48.76431978 9.72265625 51.33398438 C9.70065797 57.61858174 9.66616001 63.9030001 9.625 70.1875 C3.685 70.1875 -2.255 70.1875 -8.375 70.1875 C-8.87 66.7225 -8.87 66.7225 -9.375 63.1875 C-10.220625 63.950625 -11.06625 64.71375 -11.9375 65.5 C-19.36694339 71.55362054 -25.98963676 71.87568087 -35.375 71.1875 C-41.51472866 70.1989927 -46.81861588 67.81462885 -51.125 63.3125 C-56.10679498 56.3933403 -56.41169612 49.52735006 -55.375 41.1875 C-52.76033819 34.4489782 -47.85775164 30.1547889 -41.375 27.1875 C-37.19698741 25.59695186 -33.78459549 24.94616396 -29.3203125 24.9921875 C-27.65742187 25.00185547 -27.65742187 25.00185547 -25.9609375 25.01171875 C-24.81882812 25.02847656 -23.67671875 25.04523437 -22.5 25.0625 C-20.75203125 25.07603516 -20.75203125 25.07603516 -18.96875 25.08984375 C-16.10395423 25.11332568 -13.23958465 25.14616859 -10.375 25.1875 C-10.15340981 18.65047634 -10.15340981 18.65047634 -13.375 13.1875 C-18.56519845 10.46264582 -24.65743263 10.39833644 -30.375 11.1875 C-33.13881961 12.26210399 -35.61857225 13.51286056 -38.18359375 14.99609375 C-40.27091206 16.1309103 -42.05639814 16.72800487 -44.375 17.1875 C-45.60256895 15.45093905 -46.80656853 13.69769623 -48 11.9375 C-48.67289063 10.96296875 -49.34578125 9.9884375 -50.0390625 8.984375 C-51.375 6.1875 -51.375 6.1875 -51.015625 4.05859375 C-48.63490853 1.3434433 -45.71448876 0.00249525 -42.5 -1.5 C-41.87480469 -1.80744141 -41.24960937 -2.11488281 -40.60546875 -2.43164062 C-28.295256 -8.37854044 -11.36942279 -7.91910436 0 0 Z " fill="#003B80" transform="translate(863.375,839.8125)"/>
<path d="M0 0 C6.79905233 5.562861 9.64628853 11.03593609 12.75 19.3125 C12.75 25.5825 12.75 31.8525 12.75 38.3125 C-3.42 38.3125 -19.59 38.3125 -36.25 38.3125 C-33.34220764 47.68348646 -33.34220764 47.68348646 -26.44140625 53.41796875 C-20.23469052 55.9515479 -12.87316341 54.87266911 -6.8125 52.4375 C-5.28650928 51.74034688 -3.76550308 51.03216697 -2.25 50.3125 C-0.6 49.6525 1.05 48.9925 2.75 48.3125 C5.39 51.6125 8.03 54.9125 10.75 58.3125 C7.70402685 64.40444629 2.81159924 67.8320973 -3.5625 70.1875 C-13.34848107 72.72123463 -26.82935183 73.33599988 -36.04296875 68.76953125 C-43.37616359 63.92832475 -49.17351937 58.63039208 -52.25 50.3125 C-52.54519531 49.68472656 -52.84039063 49.05695312 -53.14453125 48.41015625 C-57.07258873 39.06532545 -56.7334493 25.95843786 -53.28515625 16.51171875 C-49.28366914 8.01044613 -43.29775443 0.38735417 -34.5625 -3.5625 C-23.07212022 -7.46489313 -10.1589793 -7.06126024 0 0 Z " fill="#003B7E" transform="translate(1017.25,839.6875)"/>
<path d="M0 0 C3.22099023 0.76842709 5.44805619 2.38165788 7.96484375 4.46875 C9.78894358 8.11694966 9.88835095 11.51517341 8.96484375 15.46875 C6.3884758 19.22322615 3.19629142 22.27683074 -0.03515625 25.46875 C-1.48384138 27.06282288 -2.92148056 28.66700719 -4.34765625 30.28125 C-12.20051791 39.00363267 -20.20497053 47.58562044 -28.22265625 56.15625 C-32.80821519 61.05942341 -37.34712408 65.99760041 -41.8203125 71.00390625 C-44.41162001 73.88770703 -47.03485561 76.74093515 -49.66015625 79.59375 C-57.20289715 87.74671268 -57.20289715 87.74671268 -64.22265625 96.34375 C-67.26270493 99.90794501 -69.1871804 100.35754005 -73.84765625 100.96875 C-79.0624442 100.81423776 -81.57755473 98.08243192 -85.03515625 94.46875 C-86.08832376 93.26048419 -87.13357783 92.04528674 -88.171875 90.82421875 C-93.04822245 85.21825773 -98.39420042 80.09551649 -103.71484375 74.91601562 C-104.48570312 74.15611328 -105.2565625 73.39621094 -106.05078125 72.61328125 C-106.74461914 71.93628174 -107.43845703 71.25928223 -108.15332031 70.56176758 C-111.20448398 67.16819906 -112.90283079 64.52735365 -113.47265625 59.96875 C-112.9640183 55.8996464 -111.90170556 54.33529931 -109.03515625 51.46875 C-105.18812247 49.54523311 -101.19609339 49.63266333 -97.03515625 50.46875 C-93.56898574 52.72506506 -90.96782422 55.58457531 -88.22265625 58.65625 C-87.49884766 59.42517578 -86.77503906 60.19410156 -86.02929688 60.98632812 C-84.63598771 62.46870728 -83.25244822 63.96034949 -81.88037109 65.46240234 C-79.66491726 67.87131999 -77.37181604 70.17799709 -75.03515625 72.46875 C-71.80967472 71.06196194 -69.7789875 69.40596445 -67.390625 66.8359375 C-66.71322266 66.11148438 -66.03582031 65.38703125 -65.33789062 64.640625 C-64.63986328 63.88265625 -63.94183594 63.1246875 -63.22265625 62.34375 C-62.53623047 61.60898437 -61.84980469 60.87421875 -61.14257812 60.1171875 C-57.25705888 55.94126521 -53.46774347 51.69371536 -49.72583008 47.38916016 C-46.9793048 44.26942473 -44.13345226 41.2453431 -41.28515625 38.21875 C-36.95021751 33.59316218 -32.62690766 28.95844453 -28.34765625 24.28125 C-27.47367188 23.32605469 -26.5996875 22.37085938 -25.69921875 21.38671875 C-23.35165189 18.81541018 -21.00665751 16.24178423 -18.66210938 13.66772461 C-17.26939579 12.1448575 -15.86808886 10.63034671 -14.46484375 9.1171875 C-13.04289956 7.56722262 -11.64131977 5.99720587 -10.29296875 4.3828125 C-7.10849154 0.71636036 -4.72493999 -0.36275931 0 0 Z " fill="#00D7E7" transform="translate(938.03515625,315.53125)"/>
<path d="M0 0 C27.72 0 55.44 0 84 0 C84 6.27 84 12.54 84 19 C73.77 19 63.54 19 53 19 C53 47.05 53 75.1 53 104 C46.07 104 39.14 104 32 104 C32 75.62 32 47.24 32 18 C21.44 18 10.88 18 0 18 C0 12.06 0 6.12 0 0 Z " fill="#00BFDA" transform="translate(203,806)"/>
<path d="M0 0 C6.32052645 5.29299285 9.52676686 11.71633842 10.2624054 19.92976379 C10.34530565 23.26058058 10.33756919 26.57861214 10.29296875 29.91015625 C10.28872391 31.11820419 10.28447906 32.32625214 10.28010559 33.57090759 C10.26341094 37.40167212 10.22577474 41.23189642 10.1875 45.0625 C10.17244131 47.67121632 10.15875498 50.27994095 10.14648438 52.88867188 C10.11353742 59.25932042 10.06181807 65.62956884 10 72 C3.73 72 -2.54 72 -9 72 C-9.00410889 70.48647949 -9.00821777 68.97295898 -9.01245117 67.41357422 C-9.03425163 61.78871788 -9.08855232 56.16456012 -9.15258789 50.54003906 C-9.17575965 48.10749007 -9.19016164 45.67484087 -9.19555664 43.2421875 C-9.20485163 39.74155282 -9.24585813 36.2424926 -9.29296875 32.7421875 C-9.2890361 31.65759247 -9.28510345 30.57299744 -9.28105164 29.45553589 C-9.36723121 22.93616373 -9.36723121 22.93616373 -12.35668945 17.32861328 C-16.2952879 13.85892159 -19.6104749 13.65310879 -24.6484375 13.71875 C-29.28882813 14.27374689 -32.61844523 16.37388996 -35.66333008 19.95776367 C-37.68782964 24.56548769 -37.48063491 29.00636682 -37.51171875 33.98828125 C-37.52966995 35.04661667 -37.54762115 36.10495209 -37.56611633 37.19535828 C-37.62019491 40.56769862 -37.6541079 43.9398976 -37.6875 47.3125 C-37.72067516 49.6022332 -37.755165 51.89194775 -37.79101562 54.18164062 C-37.87592035 59.7876584 -37.94274377 65.39363442 -38 71 C-43.94 71 -49.88 71 -56 71 C-56 46.91 -56 22.82 -56 -2 C-50.06 -2 -44.12 -2 -38 -2 C-37.67 0.31 -37.34 2.62 -37 5 C-36.57589844 4.60167969 -36.15179687 4.20335937 -35.71484375 3.79296875 C-25.54909521 -5.38971839 -12.11478961 -7.5584364 0 0 Z " fill="#003E83" transform="translate(790,838)"/>
<path d="M0 0 C1.051875 0.7425 2.10375 1.485 3.1875 2.25 C1.82339551 7.84282842 -0.96633526 11.16193811 -4.8125 15.25 C-8.10242322 14.18077495 -11.22238488 13.06303497 -14.375 11.625 C-19.8833739 9.54737348 -26.03687661 9.27975639 -31.8125 10.25 C-34.36293415 11.81524625 -34.36293415 11.81524625 -35.8125 14.25 C-35.67224801 16.95705512 -35.67224801 16.95705512 -34.8125 19.25 C-29.01512877 21.0505953 -23.20276991 22.65392751 -17.3125 24.125 C-7.99513592 26.58154451 0.09240372 29.01278988 5.1875 37.7265625 C7.62648547 43.8811899 6.96833884 49.97391219 4.625 56.0625 C1.22502577 62.65068536 -3.41054151 65.96160165 -10.25 68.625 C-21.83032713 72.0803036 -35.46490745 71.24369155 -46.8125 67.25 C-50.41433917 65.20350047 -53.64431314 62.91448895 -56.8125 60.25 C-56.17860765 56.75155614 -54.76072306 54.40913124 -52.75 51.5 C-52.20214844 50.70078125 -51.65429688 49.9015625 -51.08984375 49.078125 C-50.66832031 48.47484375 -50.24679687 47.8715625 -49.8125 47.25 C-46.90637468 47.87782663 -44.50430359 48.80776643 -41.875 50.1875 C-34.67498278 53.95212133 -28.9681982 54.99944254 -20.8125 54.25 C-16.96334843 52.76374788 -16.96334843 52.76374788 -13.8125 50.25 C-13.31190084 47.83517587 -13.31190084 47.83517587 -13.8125 45.25 C-18.89095129 41.16401113 -25.67685887 40.53624411 -31.88867188 39.23242188 C-39.06193962 37.6435045 -46.44834892 35.77666612 -51.1875 29.75 C-51.64898437 29.1828125 -52.11046875 28.615625 -52.5859375 28.03125 C-56.17546511 22.81843283 -56.4283683 18.4760436 -55.8125 12.25 C-53.86347799 6.09519367 -50.97238239 1.15311098 -45.40625 -2.19921875 C-30.91578488 -9.63623688 -13.94198074 -8.57028939 0 0 Z " fill="#00B6D6" transform="translate(414.8125,840.75)"/>
<path d="M0 0 C41.88069655 -0.59829566 41.88069655 -0.59829566 57.3125 13.8125 C61.1974167 17.93871587 65.04630761 22.63191062 67 28 C66.38671875 29.8984375 66.38671875 29.8984375 65 32 C64.41605469 32.97710937 63.83210937 33.95421875 63.23046875 34.9609375 C62.21919922 36.65089844 62.21919922 36.65089844 61.1875 38.375 C57.12101706 45.32306099 54.52040457 52.3508652 52 60 C51.34732599 61.67219582 50.68579673 63.34111331 50 65 C49.34 65 48.68 65 48 65 C46.93435475 68.19693574 46.86211644 70.50446912 46.84178162 73.86552429 C46.82709839 75.70178879 46.82709839 75.70178879 46.81211853 77.57514954 C46.80621438 78.93380698 46.80040393 80.29246484 46.79467773 81.65112305 C46.78509877 83.0801217 46.77508868 84.50911751 46.76467896 85.93811035 C46.73762576 89.82002219 46.71661844 93.7019462 46.69667697 97.58390021 C46.67481998 101.6398438 46.64742989 105.69574988 46.62062073 109.75166321 C46.57068996 117.43326609 46.52575255 125.11488979 46.48259836 132.79653341 C46.43322928 141.54132227 46.37830993 150.2860735 46.32291877 159.03082597 C46.20909283 177.02051571 46.10225511 195.01024096 46 213 C45.67 213 45.34 213 45 213 C44.99945523 212.1433909 44.99891047 211.28678181 44.99834919 210.40421486 C44.98336604 189.53759304 44.94085713 168.67118451 44.86790943 147.80468178 C44.83329218 137.71367615 44.80790819 127.62280666 44.80444336 117.53173828 C44.80139893 108.73385387 44.78084404 99.93621213 44.73947543 91.13842142 C44.71818723 86.48225428 44.70552329 81.82643178 44.71384621 77.17021561 C44.72141288 72.78204208 44.70545798 68.39456533 44.67193985 64.00651932 C44.66373797 62.40140841 44.66391943 60.79622781 44.67340279 59.19112396 C44.72060869 50.31848718 44.53628112 42.37008557 39 35 C33.13915224 29.47964289 28.69819376 27.94758187 20.703125 27.68359375 C19.61676758 27.64548584 18.53041016 27.60737793 17.41113281 27.56811523 C16.03795898 27.52501221 14.66478516 27.48190918 13.25 27.4375 C8.8775 27.293125 4.505 27.14875 0 27 C0 18.09 0 9.18 0 0 Z " fill="#004B98" transform="translate(724,292)"/>
<path d="M0 0 C1.14259781 -0.0112793 2.28519562 -0.02255859 3.4624176 -0.03417969 C5.33661377 -0.0220343 5.33661377 -0.0220343 7.24867249 -0.00964355 C8.56771072 -0.01665283 9.88674896 -0.02366211 11.24575806 -0.03088379 C14.86159361 -0.0491176 18.47697259 -0.04204927 22.09281611 -0.02936745 C25.87814356 -0.01923781 29.663432 -0.02863321 33.44876099 -0.03491211 C39.80661534 -0.04218954 46.16428385 -0.03259935 52.52210999 -0.0135498 C59.86923917 0.00820993 67.2159242 0.00117477 74.56304258 -0.02085543 C80.87316655 -0.03901798 87.18315693 -0.04156333 93.49329859 -0.03110075 C97.26110871 -0.02486926 101.02871022 -0.02402034 104.79650688 -0.0372467 C108.34007573 -0.0488169 111.88307319 -0.04075904 115.42658043 -0.01766968 C117.34475803 -0.00987225 119.26298404 -0.02172928 121.18113708 -0.03417969 C122.89926353 -0.01726074 122.89926353 -0.01726074 124.65209961 0 C126.1417594 0.00226215 126.1417594 0.00226215 127.66151333 0.00457001 C131.17543116 0.65294368 132.86985083 2.01680751 135.38954163 4.50793457 C136.01454163 7.50793457 136.01454163 7.50793457 135.38954163 10.50793457 C131.87186088 13.98573816 129.56272616 15.00841201 124.65209961 15.01586914 C123.50668198 15.02714844 122.36126434 15.03842773 121.18113708 15.05004883 C119.9336972 15.0419519 118.68625732 15.03385498 117.40101624 15.0255127 C116.0668766 15.030936 114.73274295 15.03805984 113.39862061 15.04675293 C109.78291111 15.06496315 106.16765896 15.0579291 102.55194163 15.04523659 C98.76615222 15.03509894 94.98040157 15.04450419 91.1946106 15.05078125 C84.83853636 15.05805456 78.48264816 15.04847743 72.12660217 15.02941895 C64.77886433 15.00764128 57.4315703 15.01470904 50.08384317 15.03672457 C43.77286542 15.05487652 37.46202126 15.05743823 31.15102583 15.04696989 C27.38270355 15.04073497 23.61458991 15.03989928 19.84628105 15.05311584 C15.64681071 15.06681645 11.44810576 15.04782819 7.24867249 15.0255127 C5.37447632 15.03765808 5.37447632 15.03765808 3.4624176 15.05004883 C1.74852089 15.03312988 1.74852089 15.03312988 0 15.01586914 C-0.9927295 15.01436104 -1.985459 15.01285294 -3.00827122 15.01129913 C-6.35018813 14.36484196 -7.54107553 13.16239739 -9.61045837 10.50793457 C-10.11045837 7.50793457 -10.11045837 7.50793457 -9.61045837 4.50793457 C-6.66599815 0.73098232 -4.72612265 0.00717968 0 0 Z " fill="#004790" transform="translate(597.6104583740234,411.4920654296875)"/>
<path d="M0 0 C1.14404297 -0.00983414 2.28808594 -0.01966827 3.46679688 -0.02980042 C4.71783203 -0.02013245 5.96886719 -0.01046448 7.2578125 -0.00050354 C8.59180267 -0.00428755 9.92578892 -0.00978826 11.25976562 -0.01687622 C14.8796837 -0.03083786 18.49912685 -0.01965654 22.11901855 -0.00316501 C25.9074745 0.01068604 29.69590288 0.00422536 33.484375 0.0007019 C39.84643202 -0.00200019 46.20830037 0.01147515 52.5703125 0.03465271 C59.92535705 0.06126256 67.28008616 0.06300961 74.63516235 0.05126435 C81.71091751 0.0404845 88.78655858 0.04667522 95.86230469 0.06081963 C98.87339983 0.06657767 101.88441144 0.0664982 104.89550781 0.06175423 C108.44146188 0.05698126 111.98707061 0.06709892 115.53295898 0.08870888 C117.45489858 0.09692647 119.37688341 0.09042716 121.29882812 0.08351135 C122.44287109 0.09341599 123.58691406 0.10332062 124.765625 0.11352539 C125.75965332 0.11595529 126.75368164 0.11838518 127.77783203 0.12088871 C130.80761271 0.56322458 132.18912393 1.39526636 134.3828125 3.50120544 C134.87890625 5.69261169 134.87890625 5.69261169 134.8203125 8.06370544 C134.81837891 9.24126404 134.81837891 9.24126404 134.81640625 10.44261169 C134.3828125 12.50120544 134.3828125 12.50120544 131.3828125 14.50120544 C128.86685181 14.75568104 128.86685181 14.75568104 125.80322266 14.76190186 C124.64228088 14.76898666 123.48133911 14.77607147 122.28521729 14.78337097 C121.01031433 14.78089355 119.73541138 14.77841614 118.421875 14.77586365 C117.06670856 14.78021045 115.71154459 14.78539349 114.35638428 14.79135132 C110.67463209 14.80475493 106.99298247 14.80531858 103.31121063 14.80278802 C100.23946872 14.8017194 97.16774766 14.80659879 94.09601021 14.81139344 C86.85110036 14.82249297 79.60624236 14.82292329 72.36132812 14.81687927 C64.88190565 14.81083569 57.40267112 14.82315912 49.92328072 14.84444934 C43.50537985 14.8620477 37.08753891 14.86806957 30.66961479 14.8648116 C26.83480597 14.86299603 23.00013126 14.86566211 19.16534424 14.87952614 C15.56034821 14.89207157 11.95564595 14.89019192 8.3506546 14.87711525 C6.39389791 14.87360974 4.43713238 14.88495111 2.48040771 14.89668274 C1.31946594 14.88966843 0.15852417 14.88265411 -1.03759766 14.87542725 C-2.04859528 14.87559499 -3.0595929 14.87576273 -4.10122681 14.87593555 C-6.6171875 14.50120544 -6.6171875 14.50120544 -8.43856812 13.19266033 C-10.4454123 10.31260725 -10.03240308 7.88224659 -9.6171875 4.50120544 C-6.70523291 0.69450492 -4.71887159 0.00099352 0 0 Z " fill="#00387A" transform="translate(597.6171875,506.49879455566406)"/>
<path d="M0 0 C3.71372727 0.38247689 6.34767779 0.71838256 9.5390625 2.7421875 C11.71081065 6.33029313 11.78235009 7.95395163 10.9765625 12.1171875 C8.69316753 15.778608 5.83676055 18.89732383 2.9765625 22.1171875 C1.93799046 23.32370457 0.90165583 24.53215006 -0.1328125 25.7421875 C-4.94039541 31.35020268 -9.80404933 36.90173081 -14.7734375 42.3671875 C-20.16534622 48.31516784 -25.21723759 54.54055817 -30.171875 60.85546875 C-32.11860028 63.23343064 -33.08361575 64.27723843 -36.0234375 65.1171875 C-42.48142368 64.91041907 -45.13045742 62.8535544 -49.359375 58.40234375 C-49.92419586 57.83140488 -50.48901672 57.260466 -51.07095337 56.67222595 C-52.86134072 54.85501707 -54.62948926 53.01774656 -56.3984375 51.1796875 C-57.60933797 49.94725056 -58.82156517 48.71611569 -60.03515625 47.48632812 C-69.87107669 37.46304135 -69.87107669 37.46304135 -70.3984375 32.8046875 C-70.0234375 29.1171875 -70.0234375 29.1171875 -67.9609375 26.1796875 C-65.0234375 24.1171875 -65.0234375 24.1171875 -61.7109375 23.3671875 C-56.3722718 24.45301781 -53.77683404 27.31017101 -50.0234375 31.1171875 C-48.25272816 32.90897671 -46.48189195 34.70064055 -44.7109375 36.4921875 C-43.88980469 37.34554687 -43.06867188 38.19890625 -42.22265625 39.078125 C-40.11114502 41.31746283 -40.11114502 41.31746283 -37.0234375 42.1171875 C-36.80429687 41.58867187 -36.58515625 41.06015625 -36.359375 40.515625 C-34.5327354 37.23621941 -32.11256441 34.54930215 -29.6484375 31.7421875 C-28.56367106 30.4923012 -27.47903958 29.24229776 -26.39453125 27.9921875 C-25.83749512 27.3528125 -25.28045898 26.7134375 -24.70654297 26.0546875 C-22.02333209 22.96592024 -19.36887138 19.85269765 -16.7109375 16.7421875 C-2.49205844 0.14432771 -2.49205844 0.14432771 0 0 Z " fill="#00DCE8" transform="translate(554.0234375,386.8828125)"/>
<path d="M0 0 C2.7871087 1.3631274 3.86518898 2.55277761 6 5 C6.47869429 8.99221742 6.46568335 11.2216114 4.3828125 14.703125 C3.63773438 15.54359375 2.89265625 16.3840625 2.125 17.25 C0.89136719 18.66539062 0.89136719 18.66539062 -0.3671875 20.109375 C-1.23601562 21.06328125 -2.10484375 22.0171875 -3 23 C-4.24136719 24.36898437 -4.24136719 24.36898437 -5.5078125 25.765625 C-7.1790165 27.5992344 -8.85486114 29.42862419 -10.53515625 31.25390625 C-12.92707297 33.91875166 -15.19254884 36.64831825 -17.4375 39.4375 C-21.56456776 44.55418437 -25.9395701 49.37237556 -30.421875 54.17578125 C-32.254735 56.18359607 -33.99071441 58.18880976 -35.703125 60.29296875 C-38.45329056 63.53423531 -39.06078194 63.88042445 -43.23120117 64.41137695 C-48.05420456 63.88493006 -50.11854994 61.79967749 -53.30078125 58.41796875 C-53.86323044 57.8479866 -54.42567963 57.27800446 -55.00517273 56.69075012 C-56.79135019 54.87213879 -58.55144205 53.03041163 -60.3125 51.1875 C-61.51470193 49.95874439 -62.71846341 48.73151257 -63.92382812 47.50585938 C-74.82410751 36.35688489 -74.82410751 36.35688489 -75.4375 31.625 C-75 28 -75 28 -72.9375 25.0625 C-70 23 -70 23 -66.6875 22.25 C-61.32928573 23.33980629 -58.77482399 26.1861261 -55 30 C-54.01641193 30.972151 -53.03198711 31.94345589 -52.046875 32.9140625 C-49.34370675 35.58916271 -46.6670065 38.28887023 -44 41 C-35.40189691 32.49336609 -27.59695662 23.39962429 -20 14 C-18.21633171 11.80583641 -16.42320209 9.61976172 -14.625 7.4375 C-13.81289063 6.44621094 -13.00078125 5.45492187 -12.1640625 4.43359375 C-8.29921811 0.08738787 -5.71991571 -0.67863407 0 0 Z " fill="#00C2DC" transform="translate(559,579)"/>
<path d="M0 0 C4.15774204 0.50179645 5.70086416 1.51336416 8.625 4.4375 C10.05065325 7.2888065 9.92640487 9.27274891 9.625 12.4375 C8.0078125 15.04296875 8.0078125 15.04296875 5.75 17.625 C4.51636719 19.05392578 4.51636719 19.05392578 3.2578125 20.51171875 C-0.11075824 24.25513045 -3.49573597 27.98225019 -6.90625 31.6875 C-9.31878104 34.37487634 -11.6075621 37.12715444 -13.875 39.9375 C-17.75464998 44.74250819 -21.82334706 49.32415055 -26.03125 53.84375 C-28.36744126 56.36204317 -28.36744126 56.36204317 -30.28125 58.90625 C-30.8484375 59.6384375 -31.415625 60.370625 -32 61.125 C-32.46664062 61.76824219 -32.93328125 62.41148437 -33.4140625 63.07421875 C-35.96567725 64.84815012 -38.17649011 64.9061387 -41.23373413 64.84358215 C-45.22009753 64.08758494 -47.53330892 61.41960013 -50.28125 58.59375 C-50.89141968 57.99123413 -51.50158936 57.38871826 -52.13024902 56.76794434 C-53.41048539 55.49313375 -54.68074703 54.20823618 -55.94140625 52.9140625 C-57.86981285 50.94280242 -59.837204 49.01789292 -61.8125 47.09375 C-63.05465636 45.84630685 -64.29432859 44.59638413 -65.53125 43.34375 C-66.41230408 42.48698669 -66.41230408 42.48698669 -67.31115723 41.61291504 C-70.24186153 38.54400954 -71.73677462 36.49286531 -71.83007812 32.16210938 C-71.375 28.4375 -71.375 28.4375 -69.9375 25.9375 C-66.06803677 23.67244836 -62.74285187 23.41088099 -58.375 24.4375 C-54.88070774 26.84012387 -52.15247974 29.80630411 -49.3125 32.9375 C-48.54228516 33.74832031 -47.77207031 34.55914063 -46.97851562 35.39453125 C-45.0886642 37.39002654 -43.22300692 39.40332397 -41.375 41.4375 C-37.82404223 39.77754647 -35.7895061 37.96221095 -33.1875 35 C-32.39472656 34.09765625 -31.60195313 33.1953125 -30.78515625 32.265625 C-27.77092987 28.72867216 -24.83833496 25.13095607 -21.9140625 21.51953125 C-18.83081878 17.77694772 -15.67507737 14.10223741 -12.5 10.4375 C-11.94022461 9.79014893 -11.38044922 9.14279785 -10.80371094 8.47583008 C-7.76825829 4.98284791 -7.76825829 4.98284791 -6.375 3.4375 C-5.89144043 2.88578125 -5.40788086 2.3340625 -4.90966797 1.765625 C-3.375 0.4375 -3.375 0.4375 0 0 Z " fill="#00D1E5" transform="translate(555.375,482.5625)"/>
<path d="M0 0 C0.78761719 -0.00257813 1.57523438 -0.00515625 2.38671875 -0.0078125 C4.3125 0.125 4.3125 0.125 5.3125 1.125 C5.39881874 2.46767413 5.41956473 3.81474322 5.41015625 5.16015625 C5.40693359 5.96904297 5.40371094 6.77792969 5.40039062 7.61132812 C5.38782227 8.8865332 5.38782227 8.8865332 5.375 10.1875 C5.37048828 11.04150391 5.36597656 11.89550781 5.36132812 12.77539062 C5.34950373 14.89195663 5.33156769 17.00848685 5.3125 19.125 C4.466875 19.07859375 3.62125 19.0321875 2.75 18.984375 C-7.20870839 18.55739619 -7.20870839 18.55739619 -15.6875 23.125 C-19.87409997 29.05061876 -20.28782025 33.72195844 -20.296875 40.87109375 C-20.31341125 41.88220718 -20.32994751 42.89332062 -20.34698486 43.93507385 C-20.39532173 47.14427859 -20.41680448 50.35300991 -20.4375 53.5625 C-20.46567157 55.74676842 -20.49560066 57.93101493 -20.52734375 60.11523438 C-20.60107657 65.45173738 -20.65280285 70.78810804 -20.6875 76.125 C-23.66672593 76.15183987 -26.64571295 76.17176037 -29.625 76.1875 C-30.47513672 76.19587891 -31.32527344 76.20425781 -32.20117188 76.21289062 C-33.01005859 76.21611328 -33.81894531 76.21933594 -34.65234375 76.22265625 C-35.4012085 76.22789307 -36.15007324 76.23312988 -36.92163086 76.23852539 C-38.6875 76.125 -38.6875 76.125 -39.6875 75.125 C-39.78189978 72.85508113 -39.80492226 70.58218033 -39.80102539 68.31030273 C-39.80117142 67.59814606 -39.80131744 66.88598938 -39.8014679 66.1522522 C-39.8007687 63.78766888 -39.79297606 61.42316339 -39.78515625 59.05859375 C-39.78329209 57.42334537 -39.78186818 55.78809643 -39.78086853 54.15284729 C-39.77704318 49.84065215 -39.76721275 45.52849048 -39.75616455 41.21630859 C-39.7459508 36.81934054 -39.74137099 32.42236711 -39.73632812 28.02539062 C-39.72559049 19.39190998 -39.70799356 10.75846301 -39.6875 2.125 C-33.4175 2.125 -27.1475 2.125 -20.6875 2.125 C-20.3575 4.765 -20.0275 7.405 -19.6875 10.125 C-18.9140625 9.01125 -18.9140625 9.01125 -18.125 7.875 C-13.2126103 2.33281674 -7.34190455 -0.02427076 0 0 Z " fill="#003D82" transform="translate(1077.6875,833.875)"/>
<path d="M0 0 C1.00678299 -0.00549866 2.01356598 -0.01099731 3.05085754 -0.0166626 C4.14921432 -0.00228149 5.24757111 0.01209961 6.37921143 0.0269165 C7.54047043 0.0263324 8.70172943 0.02574829 9.8981781 0.02514648 C13.74014072 0.02793528 17.58132949 0.05906664 21.42315674 0.09039307 C24.08546259 0.09785263 26.74772546 0.10374362 29.41003418 0.10754395 C35.7034519 0.11997269 41.99659144 0.1527926 48.28988671 0.1929419 C55.4554628 0.23766303 62.62105223 0.25964746 69.78673315 0.27972364 C84.52505824 0.32152553 99.26316514 0.39187543 114.00128174 0.48101807 C110.58392993 7.31572168 98.56848053 10.93974815 91.58465576 13.28375244 C76.23513122 17.75230997 58.59627537 15.87830739 42.80145264 15.53814697 C38.52381648 15.46118208 34.24685879 15.44549246 29.96862221 15.43128967 C24.84638201 15.41073171 19.7247563 15.35269445 14.60284424 15.29351807 C13.63419056 15.28599518 12.66553688 15.27847229 11.66753006 15.27072144 C8.94019317 15.2432703 6.21481035 15.18879937 3.48809814 15.12554932 C2.68305847 15.12107788 1.8780188 15.11660645 1.04858398 15.11199951 C-2.50151692 15.00272264 -4.60803327 14.77065537 -7.49789429 12.62823486 C-9.55515749 9.68492493 -9.58478312 7.99740722 -8.99871826 4.48101807 C-6.20079851 0.96913297 -4.46553011 -0.0188419 0 0 Z " fill="#002F6C" transform="translate(596.9987182617188,601.5189819335938)"/>
<path d="M0 0 C5.00576466 2.24728934 8.77768231 5.71324235 11.71484375 10.34765625 C13.68647771 16.10721727 13.48974733 22.93178038 11.65234375 28.66015625 C8.34183267 33.25215549 4.04573091 37.26124081 -1.28515625 39.34765625 C-7.02323335 39.98522037 -12.4193682 40.19574173 -17.72265625 37.78515625 C-23.89298709 31.91581716 -27.38245527 27.95383608 -27.72265625 19.16015625 C-27.6905531 13.40085037 -26.73449225 10.26633273 -22.98828125 5.93359375 C-16.16826729 -0.41715319 -9.22543811 -2.6335866 0 0 Z " fill="#000815" transform="translate(620.28515625,243.65234375)"/>
<path d="M0 0 C4.31772958 2.21948086 6.60567462 5.07620289 8.80859375 9.3046875 C9.38314283 12.98429326 9.36775649 16.5872955 9.30859375 20.3046875 C9.3240625 21.27664063 9.33953125 22.24859375 9.35546875 23.25 C9.32377505 29.06579308 8.87800228 32.81479717 4.80859375 37.3046875 C0.17226414 40.62015074 -5.32096977 42.05923989 -10.98828125 41.7421875 C-15.90988016 40.76484871 -19.49263444 38.4772013 -22.578125 34.53125 C-26.42956024 27.47704231 -26.11929109 19.07471448 -25.19140625 11.3046875 C-23.61652054 6.72746647 -21.04278151 4.13529751 -17.62890625 0.8046875 C-12.0081944 -1.64798676 -5.8845959 -1.86712668 0 0 Z " fill="#000715" transform="translate(926.19140625,851.6953125)"/>
<path d="M0 0 C3.98376101 2.64168374 6.3267547 5.48546843 7.83203125 10.08984375 C8.79748029 16.58248856 7.55541342 21.68903344 3.83203125 27.08984375 C-0.63999821 31.29084113 -5.45933903 31.54693732 -11.3671875 31.5078125 C-15.81509153 30.84403882 -18.43716437 28.56107031 -21.16796875 25.08984375 C-24.41213702 19.99814914 -23.98485375 13.87845987 -23.16796875 8.08984375 C-18.72978503 -0.52714931 -8.98971609 -3.77406099 0 0 Z " fill="#005E9B" transform="translate(538.16796875,959.91015625)"/>
<path d="M0 0 C4.61022155 2.18378916 6.75022527 4.48766773 9 9 C9.8086749 14.82100218 9.84476646 20.21660414 7.3125 25.5625 C6.549375 26.366875 5.78625 27.17125 5 28 C4.34 28.78375 3.68 29.5675 3 30.375 C-1.87106106 33.01349141 -6.60946823 33.06557023 -12 32 C-15.7961891 29.73756532 -19.00476085 26.99047829 -21 23 C-22.19535261 11.33396379 -22.19535261 11.33396379 -19.765625 6.58984375 C-14.01649731 -0.11272838 -8.5941765 -0.92080463 0 0 Z " fill="#00619F" transform="translate(648,959)"/>
<path d="M0 0 C18.18918919 0 18.18918919 0 24.9375 5.3125 C28.10593381 9.51595552 27.73730064 14.59003685 27.55078125 19.63671875 C26.88290876 23.71500393 25.74441998 25.84435198 22.8984375 28.765625 C15.48869791 33.58348037 9.06215216 32 0 32 C0 21.44 0 10.88 0 0 Z " fill="#005C96" transform="translate(584,959)"/>
<path d="M0 0 C56.43 0 112.86 0 171 0 C171 0.99 171 1.98 171 3 C114.57 3 58.14 3 0 3 C0 2.01 0 1.02 0 0 Z " fill="#036A9B" transform="translate(267,973)"/>
<path d="M0 0 C55.77 0 111.54 0 169 0 C169 0.99 169 1.98 169 3 C113.23 3 57.46 3 0 3 C0 2.01 0 1.02 0 0 Z " fill="#046698" transform="translate(857,973)"/>
<path d="M0 0 C1.07636719 0.00322266 2.15273438 0.00644531 3.26171875 0.00976562 C4.38964844 0.01814453 5.51757812 0.02652344 6.6796875 0.03515625 C7.81535156 0.03966797 8.95101563 0.04417969 10.12109375 0.04882812 C12.93234388 0.0606401 15.7434898 0.07711118 18.5546875 0.09765625 C18.59699502 1.70289755 18.62723604 3.30846007 18.65234375 4.9140625 C18.67047119 5.80810791 18.68859863 6.70215332 18.70727539 7.62329102 C18.5546875 10.09765625 18.5546875 10.09765625 16.9921875 13.03515625 C10.48804506 18.5386614 4.25871421 18.4922844 -3.921875 18.69140625 C-8.31288517 17.95145775 -9.75353499 16.57875197 -12.4453125 13.09765625 C-13.0703125 9.59765625 -13.0703125 9.59765625 -12.4453125 6.09765625 C-8.44457743 1.25466117 -6.12260115 -0.03222422 0 0 Z " fill="#000C18" transform="translate(309.4453125,877.90234375)"/>
<path d="M0 0 C0.94101562 0.00322266 1.88203125 0.00644531 2.8515625 0.00976562 C3.83640625 0.01814453 4.82125 0.02652344 5.8359375 0.03515625 C6.82851563 0.03966797 7.82109375 0.04417969 8.84375 0.04882812 C11.2995391 0.0606348 13.75520854 0.07710225 16.2109375 0.09765625 C16.26858135 1.69228105 16.30965194 3.28751053 16.34375 4.8828125 C16.36840332 5.77105713 16.39305664 6.65930176 16.41845703 7.57446289 C16.06769604 11.83930384 14.37645021 13.27622101 11.2109375 16.09765625 C6.21938209 19.58013677 1.11854858 19.98810654 -4.7890625 19.09765625 C-7.89712929 17.76562762 -10.2388708 16.19803965 -11.7890625 13.09765625 C-12.1640625 9.78515625 -12.1640625 9.78515625 -11.7890625 6.09765625 C-8.04501122 1.56538365 -5.75980727 -0.03469763 0 0 Z " fill="#000817" transform="translate(687.7890625,877.90234375)"/>
<path d="M0 0 C0.94101562 0.00322266 1.88203125 0.00644531 2.8515625 0.00976562 C3.83640625 0.01814453 4.82125 0.02652344 5.8359375 0.03515625 C6.82851563 0.03966797 7.82109375 0.04417969 8.84375 0.04882812 C11.2995391 0.0606348 13.75520854 0.07710225 16.2109375 0.09765625 C16.98868354 9.96638929 16.98868354 9.96638929 14.1484375 14.09765625 C8.00592239 18.2797942 2.58794598 20.1218563 -4.7890625 19.09765625 C-7.72387195 17.84880116 -9.21217016 16.83188286 -11.1640625 14.34765625 C-12.10604052 10.95653538 -11.63658449 8.48774422 -10.7890625 5.09765625 C-7.43681475 0.98844933 -5.18863171 -0.03125682 0 0 Z " fill="#000715" transform="translate(837.7890625,877.90234375)"/>
<path d="M0 0 C3.625 1.5 3.625 1.5 6 3 C5.6875 4.9375 5.6875 4.9375 5 7 C4.01 7.33 3.02 7.66 2 8 C1.34 7.67 0.68 7.34 0 7 C-1.54023996 6.93049459 -3.08334988 6.91547643 -4.625 6.9375 C-5.44226563 6.94652344 -6.25953125 6.95554687 -7.1015625 6.96484375 C-7.72804688 6.97644531 -8.35453125 6.98804688 -9 7 C-8.82964693 8.97162908 -8.82964693 8.97162908 -8 11 C-6.08578659 12.03304197 -6.08578659 12.03304197 -3.75 12.5625 C0.91354965 13.92671802 4.52077909 15.52077909 8 19 C8.4375 22.3125 8.4375 22.3125 8 26 C5.5625 28.875 5.5625 28.875 3 31 C2.67 31.33 2.34 31.66 2 32 C-10.31458286 33.07466317 -10.31458286 33.07466317 -14.8125 30 C-15.534375 29.34 -16.25625 28.68 -17 28 C-16.1875 26.0625 -16.1875 26.0625 -15 24 C-14.01 23.67 -13.02 23.34 -12 23 C-12 23.66 -12 24.32 -12 25 C-8.10835652 26.29721449 -5.10570774 26.13033993 -1 26 C-0.34 25.67 0.32 25.34 1 25 C1 23.68 1 22.36 1 21 C0.19175781 20.76925781 -0.61648438 20.53851562 -1.44921875 20.30078125 C-12.86307461 16.81742114 -12.86307461 16.81742114 -16 12 C-16.6875 8.5 -16.6875 8.5 -16 5 C-11.50792179 -0.55599147 -6.89983856 -1.07181958 0 0 Z " fill="#0063A1" transform="translate(772,959)"/>
<path d="M0 0 C0.33 0 0.66 0 1 0 C1 108.9 1 217.8 1 330 C-2.3 330 -5.6 330 -9 330 C-5.77208445 327.8480563 -4.71599191 327.79913557 -1 328 C-1.24447876 326.32164062 -1.24447876 326.32164062 -1.49389648 324.609375 C-2.09095042 319.81135456 -2.12679055 315.07930197 -2.09765625 310.25 C-2.0962413 309.35128174 -2.09482635 308.45256348 -2.09336853 307.52661133 C-2.08781583 304.68437225 -2.07527237 301.84221487 -2.0625 299 C-2.05747888 297.06119906 -2.05291705 295.12239688 -2.04882812 293.18359375 C-2.03786194 288.45569817 -2.02063044 283.72786289 -2 279 C-1.34 279 -0.68 279 0 279 C0 186.93 0 94.86 0 0 Z " fill="#003E77" transform="translate(447,338)"/>
<path d="M0 0 C4.47162637 2.11813881 7.04275148 4.4330868 9 9 C9 10.98 9 12.96 9 15 C-0.9 15 -10.8 15 -21 15 C-21 8.78970327 -20.74553082 7.55537532 -17 3 C-11.59547494 -0.91874498 -6.45633217 -0.78735758 0 0 Z " fill="#000714" transform="translate(1003,850)"/>
<path d="M0 0 C2.3515625 0.46875 2.3515625 0.46875 4.9765625 2.34375 C6.92777938 6.77833382 7.1503771 10.69935696 6.3515625 15.46875 C4.55509396 18.40298195 3.4074554 19.94080355 0.3515625 21.46875 C-3.48035588 21.89451871 -5.17793433 21.77196315 -8.4609375 19.65625 C-11.44163752 16.67554998 -11.8291376 14.15873647 -11.9609375 10.09375 C-11.89387942 6.93170382 -11.60074067 5.36251614 -10.2734375 2.40625 C-6.79251409 -0.16300299 -4.25480881 -0.25102117 0 0 Z " fill="#000A1A" transform="translate(644.6484375,964.53125)"/>
<path d="M0 0 C0.77085937 -0.03738281 1.54171875 -0.07476563 2.3359375 -0.11328125 C5.57274649 0.48878732 6.67620291 1.69380391 8.625 4.3125 C9.59034727 8.86969131 9.95739391 14.09944846 7.484375 18.20703125 C5.0596634 20.42117579 2.74164571 21.28869475 -0.4375 21.9375 C-4.35313037 21.10438716 -5.84922371 19.34343154 -8.375 16.3125 C-9.91097454 13.24055092 -9.6015038 10.71005707 -9.375 7.3125 C-7.13712467 1.81953329 -5.87574737 0.18544718 0 0 Z " fill="#000918" transform="translate(530.375,964.6875)"/>
<path d="M0 0 C8.58 0 17.16 0 26 0 C26 1.98 26 3.96 26 6 C22.7 6 19.4 6 16 6 C16 14.58 16 23.16 16 32 C14.02 32 12.04 32 10 32 C10 23.42 10 14.84 10 6 C6.7 6 3.4 6 0 6 C0 4.02 0 2.04 0 0 Z " fill="#016EAE" transform="translate(476,959)"/>
<path d="M0 0 C8.25 0 16.5 0 25 0 C25 1.98 25 3.96 25 6 C21.7 6 18.4 6 15 6 C15 14.58 15 23.16 15 32 C13.02 32 11.04 32 9 32 C9 23.42 9 14.84 9 6 C6.03 6 3.06 6 0 6 C0 4.02 0 2.04 0 0 Z " fill="#01619E" transform="translate(794,959)"/>
<path d="M0 0 C10 0 10 0 13.125 1.9375 C15.65757774 6.07404365 15.79008961 9.26805029 15 14 C13.7671112 16.89728868 12.7754988 18.39683427 10.3125 20.3125 C8 21 8 21 0 21 C0 14.07 0 7.14 0 0 Z " fill="#000B1A" transform="translate(590,965)"/>
<path d="M0 0 C1.98 0 3.96 0 6 0 C6 8.58 6 17.16 6 26 C10.95 26 15.9 26 21 26 C21 27.98 21 29.96 21 32 C14.07 32 7.14 32 0 32 C0 21.44 0 10.88 0 0 Z " fill="#01619C" transform="translate(696,959)"/>
<path d="M0 0 C2.31 0 4.62 0 7 0 C7 10.56 7 21.12 7 32 C4.69 32 2.38 32 0 32 C0 21.44 0 10.88 0 0 Z " fill="#005B94" transform="translate(732,959)"/>
<path d="M0 0 C4.95 0 9.9 0 15 0 C14.01 0.495 14.01 0.495 13 1 C13.33 1.99 13.66 2.98 14 4 C11.03 4 8.06 4 5 4 C5 11.26 5 18.52 5 26 C7.97 26 10.94 26 14 26 C14 26.33 14 26.66 14 27 C12.35 27.33 10.7 27.66 9 28 C10.32 28.66 11.64 29.32 13 30 C8.71 30 4.42 30 0 30 C0 20.1 0 10.2 0 0 Z " fill="#0069AA" transform="translate(585,960)"/>
<path d="M0 0 C12.87 0 25.74 0 39 0 C39 8.91 39 17.82 39 27 C18.21 27.495 18.21 27.495 -3 28 C1.63323398 24.91117735 5.34736469 24.86419105 10.73046875 24.90234375 C11.85609978 24.90446617 11.85609978 24.90446617 13.00447083 24.90663147 C15.3988546 24.9122244 17.79314453 24.92477556 20.1875 24.9375 C21.81184761 24.94251592 23.43619668 24.94707866 25.06054688 24.95117188 C29.04042975 24.9613402 33.02010993 24.98091688 37 25 C37 17.41 37 9.82 37 2 C24.79 2 12.58 2 0 2 C0 1.34 0 0.68 0 0 Z " fill="#0065B5" transform="translate(463,292)"/>
<path d="M0 0 C0.33 0 0.66 0 1 0 C1.00238835 0.9352139 1.00477671 1.8704278 1.00723743 2.83398151 C1.06597639 25.56743672 1.14182429 48.30078547 1.23571491 71.03412342 C1.28072134 82.02770341 1.32012475 93.02125064 1.34643555 104.01489258 C1.36937644 113.59456895 1.40273047 123.1741421 1.44870156 132.75373667 C1.47268665 137.82822411 1.49138071 142.90260899 1.49761391 147.97715187 C1.50364094 152.75009253 1.52355394 157.5227706 1.55427551 162.29561424 C1.56309411 164.05041051 1.56677047 165.80524105 1.56500816 167.56005859 C1.56336515 169.95028345 1.5799702 172.33969848 1.60127258 174.72981262 C1.59642501 175.42922669 1.59157743 176.12864075 1.58658296 176.84924918 C1.63032706 179.80953762 1.66977486 181.57677292 3.52492046 183.95438671 C4.01169671 184.2994391 4.49847296 184.64449148 5 185 C3.35 185 1.7 185 0 185 C0 123.95 0 62.9 0 0 Z " fill="#014E8D" transform="translate(421,482)"/>
<path d="M0 0 C0.7433951 -0.00085442 1.4867902 -0.00170885 2.25271243 -0.00258917 C4.73854256 -0.00423357 7.22430489 0.00126037 9.71012878 0.00672913 C11.49409483 0.00701125 13.278061 0.00685277 15.06202698 0.00628662 C19.90249578 0.00599962 24.74293982 0.01188064 29.58340287 0.01886058 C34.64295212 0.0251103 39.70250193 0.0256992 44.76205444 0.02688599 C54.34191256 0.02999452 63.92175927 0.03820148 73.50161237 0.04823548 C84.40841164 0.05941143 95.31521145 0.0649108 106.22201502 0.06993091 C128.65710549 0.08038448 151.09218584 0.09797469 173.52726746 0.12025452 C173.52726746 0.45025452 173.52726746 0.78025452 173.52726746 1.12025452 C172.60659296 1.12448646 171.68591846 1.1287184 170.73734474 1.13307858 C148.36312914 1.23626219 125.98894573 1.34488131 103.61478615 1.45959377 C92.79493426 1.51493534 81.97507907 1.56841886 71.15519714 1.61756897 C61.72755857 1.66039938 52.29994437 1.70667446 42.87234342 1.75713307 C37.87783596 1.78374323 32.88333337 1.80859652 27.88879776 1.82932854 C23.19228297 1.84887782 18.49581461 1.87301643 13.7993412 1.90074539 C12.07152841 1.9101249 10.34370541 1.91779693 8.61587715 1.92367363 C6.2649697 1.93191956 3.91417539 1.94619188 1.56330872 1.96203613 C0.24514475 1.96848868 -1.07301922 1.97494123 -2.43112755 1.98158932 C-5.39113721 1.91028376 -5.39113721 1.91028376 -7.47273254 3.12025452 C-9.14927983 2.84082997 -10.81881409 2.51197205 -12.47273254 2.12025452 C-12.47273254 1.79025452 -12.47273254 1.46025452 -12.47273254 1.12025452 C-8.29773926 0.10886048 -4.27066811 -0.01803657 0 0 Z " fill="#001B3F" transform="translate(575.4727325439453,714.8797454833984)"/>
<path d="M0 0 C8.58 0 17.16 0 26 0 C26 1.98 26 3.96 26 6 C22.7 6 19.4 6 16 6 C16 5.67 16 5.34 16 5 C18.97 5 21.94 5 25 5 C25 3.68 25 2.36 25 1 C24.67 1.99 24.34 2.98 24 4 C20.04 3.67 16.08 3.34 12 3 C11.67 12.24 11.34 21.48 11 31 C12.65 31 14.3 31 16 31 C16 31.33 16 31.66 16 32 C14.02 32 12.04 32 10 32 C10 23.42 10 14.84 10 6 C6.7 6 3.4 6 0 6 C0 4.02 0 2.04 0 0 Z " fill="#01588D" transform="translate(476,959)"/>
<path d="M0 0 C0.33 0 0.66 0 1 0 C1.33 23.43 1.66 46.86 2 71 C6.62 71 11.24 71 16 71 C16.99 71.99 17.98 72.98 19 74 C16.02077407 74.02683987 13.04178705 74.04676037 10.0625 74.0625 C9.21236328 74.07087891 8.36222656 74.07925781 7.48632812 74.08789062 C6.67744141 74.09111328 5.86855469 74.09433594 5.03515625 74.09765625 C4.2862915 74.10289307 3.53742676 74.10812988 2.76586914 74.11352539 C1 74 1 74 0 73 C-0.09439978 70.73008113 -0.11742226 68.45718033 -0.11352539 66.18530273 C-0.11367142 65.47314606 -0.11381744 64.76098938 -0.1139679 64.0272522 C-0.1132687 61.66266888 -0.10547606 59.29816339 -0.09765625 56.93359375 C-0.09579209 55.29834537 -0.09436818 53.66309643 -0.09336853 52.02784729 C-0.08954318 47.71565215 -0.07971275 43.40349048 -0.06866455 39.09130859 C-0.0584508 34.69434054 -0.05387099 30.29736711 -0.04882812 25.90039062 C-0.03809049 17.26691169 -0.02101387 8.63346 0 0 Z " fill="#01234D" transform="translate(1038,836)"/>
<path d="M0 0 C0.66 0 1.32 0 2 0 C2.02887814 3.47914941 2.04675687 6.95826831 2.0625 10.4375 C2.07087891 11.43072266 2.07925781 12.42394531 2.08789062 13.44726562 C2.09272461 14.86362305 2.09272461 14.86362305 2.09765625 16.30859375 C2.10551147 17.62041626 2.10551147 17.62041626 2.11352539 18.95874023 C2 21 2 21 1 22 C-0.41570123 22.08651611 -1.835595 22.10704904 -3.25390625 22.09765625 C-4.10791016 22.09443359 -4.96191406 22.09121094 -5.84179688 22.08789062 C-6.73962891 22.07951172 -7.63746094 22.07113281 -8.5625 22.0625 C-9.46419922 22.05798828 -10.36589844 22.05347656 -11.29492188 22.04882812 C-13.53001314 22.03700225 -15.76497437 22.0205222 -18 22 C-18 21.01 -18 20.02 -18 19 C-12.39 19 -6.78 19 -1 19 C-0.67 12.73 -0.34 6.46 0 0 Z " fill="#0091B1" transform="translate(449,888)"/>
<path d="M0 0 C2.5012648 2.5012648 2.42941682 4.4083367 2.75390625 7.83203125 C2.95592961 10.025347 2.95592961 10.025347 3.546875 12.21875 C4.1774219 16.0890034 3.9310443 19.78553195 3.6875 23.6875 C3.63899902 24.48969971 3.59049805 25.29189941 3.54052734 26.1184082 C2.96787008 34.66761017 1.71568537 42.23083968 -2 50 C-3.2567728 46.2296816 -2.51685225 44.60134153 -1.5625 40.75 C1.3557614 27.54426086 0.24685441 13.43900723 0 0 Z " fill="#00E5ED" transform="translate(945,365)"/>
<path d="M0 0 C0.66 0 1.32 0 2 0 C2 5.94 2 11.88 2 18 C-8.56 18 -19.12 18 -30 18 C-30 17.67 -30 17.34 -30 17 C-29.15703369 16.97494385 -28.31406738 16.9498877 -27.44555664 16.92407227 C-24.32758326 16.82911845 -21.20978497 16.72987552 -18.09204102 16.62768555 C-16.74085853 16.58428777 -15.38961947 16.5426163 -14.03833008 16.50268555 C-12.09963299 16.44510048 -10.16113724 16.38085702 -8.22265625 16.31640625 C-7.05484619 16.27974854 -5.88703613 16.24309082 -4.68383789 16.20532227 C-2.08220205 16.29923812 -2.08220205 16.29923812 -1 15 C-0.76346477 12.47403741 -0.57826308 9.96892793 -0.4375 7.4375 C-0.39431641 6.72658203 -0.35113281 6.01566406 -0.30664062 5.28320312 C-0.20028223 3.52238088 -0.09961154 1.7612168 0 0 Z " fill="#00DAEB" transform="translate(285,806)"/>
<path d="M0 0 C1.15628906 0.00386719 2.31257812 0.00773438 3.50390625 0.01171875 C6.4375 0.3125 6.4375 0.3125 8.4375 2.3125 C7.2 2.395 5.9625 2.4775 4.6875 2.5625 C1.97638649 2.93611635 0.46493631 3.29661582 -1.9375 4.6875 C-4.52738587 8.87116179 -4.93039598 13.4885483 -5.5625 18.3125 C-5.8925 18.3125 -6.2225 18.3125 -6.5625 18.3125 C-6.61699838 16.58369018 -6.65551688 14.85437288 -6.6875 13.125 C-6.71070313 12.16207031 -6.73390625 11.19914063 -6.7578125 10.20703125 C-6.5538544 7.18437222 -5.83124632 5.04480015 -4.5625 2.3125 C-5.2225 2.3125 -5.8825 2.3125 -6.5625 2.3125 C-7.2225 3.9625 -7.8825 5.6125 -8.5625 7.3125 C-9.25 5.5 -9.25 5.5 -9.5625 3.3125 C-7.090992 -0.42182231 -4.2035306 -0.06105687 0 0 Z " fill="#0069A9" transform="translate(526.5625,961.6875)"/>
<path d="M0 0 C0.66 0.33 1.32 0.66 2 1 C1.54149658 1.42821045 1.08299316 1.8564209 0.6105957 2.29760742 C-1.48960991 4.26000775 -3.58856315 6.22374272 -5.6875 8.1875 C-6.40873047 8.86103516 -7.12996094 9.53457031 -7.87304688 10.22851562 C-11.64579164 13.76008036 -15.37447721 17.31726975 -19 21 C-19.33 19.35 -19.66 17.7 -20 16 C-13.33333333 10.66666667 -6.66666667 5.33333333 0 0 Z " fill="#01CCD5" transform="translate(395,484)"/>
<path d="M0 0 C0.33 0 0.66 0 1 0 C1.00586624 0.66985428 1.01173248 1.33970856 1.01777649 2.02986145 C1.0816098 8.98902032 1.16600328 15.94771241 1.26245117 22.90649414 C1.29574743 25.50506443 1.32376454 28.10370787 1.34643555 30.70239258 C1.37989451 34.43342319 1.43220729 38.16378061 1.48828125 41.89453125 C1.49467117 43.06023148 1.5010611 44.2259317 1.50764465 45.42695618 C1.52743881 46.50785019 1.54723297 47.5887442 1.56762695 48.70239258 C1.57873001 49.65503494 1.58983307 50.60767731 1.60127258 51.58918762 C2.06272435 54.37924818 2.81941759 55.26957087 5 57 C3.35 57 1.7 57 0 57 C0 38.19 0 19.38 0 0 Z " fill="#01427C" transform="translate(421,610)"/>
<path d="M0 0 C3.0625 0.1875 3.0625 0.1875 5.0625 2.1875 C2.4225 2.5175 -0.2175 2.8475 -2.9375 3.1875 C-3.2675 4.5075 -3.5975 5.8275 -3.9375 7.1875 C-1.4625 9.1675 -1.4625 9.1675 1.0625 11.1875 C0.4025 11.8475 -0.2575 12.5075 -0.9375 13.1875 C-0.9375 13.5175 -0.9375 13.8475 -0.9375 14.1875 C-2.5875 14.1875 -4.2375 14.1875 -5.9375 14.1875 C-6.2675 13.1975 -6.5975 12.2075 -6.9375 11.1875 C-7.5975 10.5275 -8.2575 9.8675 -8.9375 9.1875 C-8.12664873 7.87398079 -7.31376942 6.56171332 -6.5 5.25 C-6.04753906 4.51910156 -5.59507812 3.78820312 -5.12890625 3.03515625 C-3.30792597 0.21114421 -3.30792597 0.21114421 0 0 Z " fill="#016EB0" transform="translate(766.9375,961.8125)"/>
<path d="M0 0 C1.27681801 3.83045403 0.47686394 4.98963213 -1.125 8.625 C-1.54007813 9.60726563 -1.95515625 10.58953125 -2.3828125 11.6015625 C-4 14 -4 14 -6.58203125 14.734375 C-7.37996094 14.82203125 -8.17789063 14.9096875 -9 15 C-9.515625 15.53625 -10.03125 16.0725 -10.5625 16.625 C-11.2740625 17.305625 -11.2740625 17.305625 -12 18 C-14.08984375 17.5859375 -14.08984375 17.5859375 -16 17 C-15.49210938 16.57589844 -14.98421875 16.15179688 -14.4609375 15.71484375 C-8.89604144 10.97321883 -4.06267088 6.09400632 0 0 Z " fill="#00B4CE" transform="translate(921,411)"/>
<path d="M0 0 C0.33 0 0.66 0 1 0 C1.02903892 4.08331839 1.04681189 8.1666102 1.0625 12.25 C1.07087891 13.40886719 1.07925781 14.56773437 1.08789062 15.76171875 C1.09111328 16.87675781 1.09433594 17.99179687 1.09765625 19.140625 C1.10289307 20.16704102 1.10812988 21.19345703 1.11352539 22.25097656 C1.01336951 24.67625656 0.69923078 26.68697361 0 29 C-0.66 29 -1.32 29 -2 29 C-2.0580772 24.91672643 -2.09362249 20.83355917 -2.125 16.75 C-2.14175781 15.59113281 -2.15851562 14.43226563 -2.17578125 13.23828125 C-2.18222656 12.12324219 -2.18867187 11.00820313 -2.1953125 9.859375 C-2.20578613 8.83295898 -2.21625977 7.80654297 -2.22705078 6.74902344 C-1.99836111 3.98015712 -1.4243299 2.35581208 0 0 Z " fill="#002F38" transform="translate(945,371)"/>
<path d="M0 0 C0 0.66 0 1.32 0 2 C-0.53367187 2.24492187 -1.06734375 2.48984375 -1.6171875 2.7421875 C-8.67838094 6.28500082 -13.65381498 11.25201402 -19 17 C-19.66 16.67 -20.32 16.34 -21 16 C-16.77025897 8.90007756 -8.67732413 0 0 0 Z " fill="#006EC2" transform="translate(450,297)"/>
<path d="M0 0 C1.53333984 0.01353516 1.53333984 0.01353516 3.09765625 0.02734375 C5.60701522 0.0507957 8.11588336 0.08361645 10.625 0.125 C10.625 0.785 10.625 1.445 10.625 2.125 C4.03003344 2.83934841 -2.42787547 3.21679359 -9.0625 3.0625 C-11.53608202 3.01731534 -11.53608202 3.01731534 -14.375 4.125 C-15.365 3.465 -16.355 2.805 -17.375 2.125 C-11.62047579 -0.36928183 -6.14438083 -0.10306703 0 0 Z " fill="#01DDE1" transform="translate(866.375,295.875)"/>
<path d="M0 0 C0.99 0 1.98 0 3 0 C3.02708567 1.60407328 3.04643483 3.2082785 3.0625 4.8125 C3.07410156 5.70582031 3.08570313 6.59914063 3.09765625 7.51953125 C3 10 3 10 2 13 C1.77820215 14.89212737 1.59385985 16.78884472 1.4375 18.6875 C1.35371094 19.68136719 1.26992188 20.67523438 1.18359375 21.69921875 C1.12300781 22.45847656 1.06242188 23.21773438 1 24 C0.01 24 -0.98 24 -2 24 C-1.34 16.08 -0.68 8.16 0 0 Z " fill="#00121F" transform="translate(962,409)"/>
<path d="M0 0 C0.33 0 0.66 0 1 0 C1.33 4.29 1.66 8.58 2 13 C2.99 13 3.98 13 5 13 C5 12.34 5 11.68 5 11 C8 12 8 12 9.1875 14.0625 C9.455625 14.701875 9.72375 15.34125 10 16 C9.34 16.99 8.68 17.98 8 19 C5.03972924 18.68282813 4.01571727 18.01571727 1.875 15.875 C-0.42490085 12.34848536 -0.41829268 10.35274382 -0.25 6.1875 C-0.21390625 5.02605469 -0.1778125 3.86460937 -0.140625 2.66796875 C-0.07101562 1.34732422 -0.07101562 1.34732422 0 0 Z " fill="#0066A5" transform="translate(516,970)"/>
<path d="M0 0 C0 4.54831541 -2.80605425 6.48686629 -5.8125 9.6875 C-6.35970703 10.29400391 -6.90691406 10.90050781 -7.47070312 11.52539062 C-8.00244141 12.09837891 -8.53417969 12.67136719 -9.08203125 13.26171875 C-9.81256714 14.05002075 -9.81256714 14.05002075 -10.55786133 14.85424805 C-12.81131867 16.64457737 -15.19724881 16 -18 16 C-12.07341663 10.57712263 -6.13842918 5.18356242 0 0 Z " fill="#01346D" transform="translate(895,555)"/>
<path d="M0 0 C1.51340155 4.2038932 0.72030914 5.95783601 0 11 C-11.22 11 -22.44 11 -34 11 C-34 10.67 -34 10.34 -34 10 C-23.11 10 -12.22 10 -1 10 C-1.495 6.535 -1.495 6.535 -2 3 C-1.34 2.01 -0.68 1.02 0 0 Z " fill="#011126" transform="translate(567,255)"/>
<path d="M0 0 C0.375 2.1875 0.375 2.1875 0 5 C-2.75 7.875 -2.75 7.875 -6 10 C-8.375 9.8125 -8.375 9.8125 -10 9 C-8.5124715 4.98367305 -4.56813239 0 0 0 Z " fill="#01DCE6" transform="translate(376,501)"/>
<path d="M0 0 C1.04889718 3.30985334 0.95206116 5.9410905 0.5625 9.375 C0.1551731 13.27593836 -0.10615679 17.07219893 0 21 C-0.99 21.33 -1.98 21.66 -3 22 C-3.19784125 6.15071739 -3.19784125 6.15071739 -2 1 C-1.34 0.67 -0.68 0.34 0 0 Z " fill="#001623" transform="translate(805,363)"/>
<path d="M0 0 C0.33 0.99 0.66 1.98 1 3 C-0.44815391 5.17373622 -1.90742335 7.11931071 -3.5625 9.125 C-4.49054586 10.28595375 -5.41632432 11.44872358 -6.33984375 12.61328125 C-6.79472168 13.1851416 -7.24959961 13.75700195 -7.71826172 14.34619141 C-10.35787426 17.75204576 -12.68996955 21.3659277 -15 25 C-15.33 24.01 -15.66 23.02 -16 22 C-15.07543945 20.17822266 -15.07543945 20.17822266 -13.61328125 18.1640625 C-13.08669922 17.42929687 -12.56011719 16.69453125 -12.01757812 15.9375 C-11.45490234 15.174375 -10.89222656 14.41125 -10.3125 13.625 C-9.76916016 12.86960937 -9.22582031 12.11421875 -8.66601562 11.3359375 C-5.87493142 7.47499393 -3.01890114 3.68731964 0 0 Z " fill="#00D9E7" transform="translate(362,518)"/>
<path d="M0 0 C0.33 1.32 0.66 2.64 1 4 C2.46373047 3.94779297 2.46373047 3.94779297 3.95703125 3.89453125 C5.22933594 3.86746094 6.50164062 3.84039063 7.8125 3.8125 C9.07707031 3.77769531 10.34164063 3.74289062 11.64453125 3.70703125 C15 4 15 4 18 7 C12.06 7 6.12 7 0 7 C0 4.69 0 2.38 0 0 Z " fill="#002C62" transform="translate(1039,903)"/>
<path d="M0 0 C0 0.33 0 0.66 0 1 C-1.03833984 0.90912109 -1.03833984 0.90912109 -2.09765625 0.81640625 C-10.39281313 0.10601732 -18.69191272 -0.46655724 -27 -1 C-27 -1.33 -27 -1.66 -27 -2 C-17.31320158 -3.43508125 -9.20466787 -3.73522754 0 0 Z " fill="#00EEF2" transform="translate(884,312)"/>
<path d="M0 0 C0.66 0 1.32 0 2 0 C0.31853173 3.61690832 -1.79892367 6.86565502 -4 10.1875 C-4.70125 11.25355469 -5.4025 12.31960938 -6.125 13.41796875 C-8 16 -8 16 -10 17 C-9.47154423 12.47509746 -7.72491323 9.8507782 -5 6.25 C-4.278125 5.28578125 -3.55625 4.3215625 -2.8125 3.328125 C-1 1 -1 1 0 0 Z " fill="#01D6DF" transform="translate(330,546)"/>
<path d="M0 0 C0.66 0.99 1.32 1.98 2 3 C0.71142987 4.31554021 -0.58095891 5.62734097 -1.875 6.9375 C-2.59429688 7.66839844 -3.31359375 8.39929688 -4.0546875 9.15234375 C-7.35005803 12.28228403 -9.55750046 12.09657608 -14 12 C-14 11.01 -14 10.02 -14 9 C-12.989375 9 -11.97875 9 -10.9375 9 C-6.20579173 8.39163751 -4.13081476 5.27348043 -1.28515625 1.71484375 C-0.86105469 1.14894531 -0.43695312 0.58304688 0 0 Z " fill="#001C2A" transform="translate(527,538)"/>
<path d="M0 0 C2.625 0.9375 2.625 0.9375 5 2 C4.6875 3.9375 4.6875 3.9375 4 6 C0.61725734 7.12758089 -0.76778223 6.81750262 -4.1875 6.0625 C-5.08855469 5.86785156 -5.98960937 5.67320312 -6.91796875 5.47265625 C-7.94857422 5.23869141 -7.94857422 5.23869141 -9 5 C-9 4.67 -9 4.34 -9 4 C-5.535 3.505 -5.535 3.505 -2 3 C-2 2.34 -2 1.68 -2 1 C-1.34 0.67 -0.68 0.34 0 0 Z " fill="#015B90" transform="translate(773,960)"/>
<path d="M0 0 C0.66 0.66 1.32 1.32 2 2 C-5.23963731 8.13795337 -5.23963731 8.13795337 -11.125 8.0625 C-12.03507813 8.05347656 -12.94515625 8.04445313 -13.8828125 8.03515625 C-14.58148437 8.02355469 -15.28015625 8.01195312 -16 8 C-16.33 7.34 -16.66 6.68 -17 6 C-15.91332031 5.97873047 -15.91332031 5.97873047 -14.8046875 5.95703125 C-8.10959038 5.62673979 -4.65109657 4.90250719 0 0 Z " fill="#00458E" transform="translate(703,327)"/>
<path d="M0 0 C2 3 2 3 2 6 C2.66 5.67 3.32 5.34 4 5 C5.87379605 4.92966231 7.75001102 4.9156978 9.625 4.9375 C11.12933594 4.95103516 11.12933594 4.95103516 12.6640625 4.96484375 C13.43492187 4.97644531 14.20578125 4.98804688 15 5 C15 5.66 15 6.32 15 7 C9.72 7 4.44 7 -1 7 C-1 1 -1 1 0 0 Z " fill="#003374" transform="translate(706,902)"/>
<path d="M0 0 C0.33 1.32 0.66 2.64 1 4 C-5.27 4 -11.54 4 -18 4 C-18 3.34 -18 2.68 -18 2 C-16.17662109 1.90912109 -16.17662109 1.90912109 -14.31640625 1.81640625 C-12.73175772 1.73201668 -11.14712298 1.6473679 -9.5625 1.5625 C-8.76005859 1.52318359 -7.95761719 1.48386719 -7.13085938 1.44335938 C-3.24760439 1.5945704 -3.24760439 1.5945704 0 0 Z " fill="#003677" transform="translate(647,905)"/>
<path d="M0 0 C5.61 0.33 11.22 0.66 17 1 C17 1.33 17 1.66 17 2 C16.09636719 2.00257813 15.19273437 2.00515625 14.26171875 2.0078125 C10.74578602 2.12308898 7.45111824 2.30716187 4 3 C1.53025527 5.84100775 1.53025527 5.84100775 1 9 C0.67 9 0.34 9 0 9 C0 6.03 0 3.06 0 0 Z " fill="#010F1D" transform="translate(256,825)"/>
<path d="M0 0 C0.66 0 1.32 0 2 0 C0.58328436 4.8404451 -1.27258598 8.78490561 -4 13 C-4.99 13.33 -5.98 13.66 -7 14 C-6.33298297 10.47551493 -4.89642169 7.81699862 -3.0625 4.75 C-2.53785156 3.85796875 -2.01320313 2.9659375 -1.47265625 2.046875 C-0.98667969 1.37140625 -0.50070312 0.6959375 0 0 Z " fill="#01D4E0" transform="translate(924,449)"/>
<path d="M0 0 C2.96175123 0.61277612 4.38058783 1.25372522 7 3 C5.61811547 6.21043882 4.07578097 8.04936365 1.375 10.25 C0.74335937 10.77078125 0.11171875 11.2915625 -0.5390625 11.828125 C-1.02117188 12.21484375 -1.50328125 12.6015625 -2 13 C-0.84826645 10.53199953 0.04783565 8.95216435 2 7 C2.16681109 3.91652174 2.16681109 3.91652174 2 1 C1.34 0.67 0.68 0.34 0 0 Z " fill="#00E1E7" transform="translate(908,310)"/>
<path d="M0 0 C1.05147939 3.41730801 1.36370888 6.43565297 1 10 C-1 12.875 -1 12.875 -3 15 C-2.5547115 9.72684667 -1.91626837 4.98229776 0 0 Z " fill="#02B8C0" transform="translate(942,408)"/>
<path d="M0 0 C2.64 0 5.28 0 8 0 C8 1.32 8 2.64 8 4 C4.37 4 0.74 4 -3 4 C-2.01 3.34 -1.02 2.68 0 2 C0 1.34 0 0.68 0 0 Z " fill="#015990" transform="translate(527,987)"/>
<path d="M0 0 C0.33 0 0.66 0 1 0 C1.01458252 0.55985596 1.02916504 1.11971191 1.04418945 1.6965332 C1.11871352 4.23588137 1.21535581 6.77392078 1.3125 9.3125 C1.33505859 10.19357422 1.35761719 11.07464844 1.38085938 11.98242188 C1.41630859 12.82998047 1.45175781 13.67753906 1.48828125 14.55078125 C1.51446533 15.33106689 1.54064941 16.11135254 1.56762695 16.9152832 C2.0931671 19.44921166 3.0408526 20.36927777 5 22 C3.35 22 1.7 22 0 22 C0 14.74 0 7.48 0 0 Z " fill="#01376D" transform="translate(421,645)"/>
<path d="M0 0 C0.99 0.33 1.98 0.66 3 1 C-0.16952847 4.26008643 -3.39937989 7.22237877 -7 10 C-7 7 -7 7 -5.46875 5.17578125 C-4.8190625 4.56089844 -4.169375 3.94601562 -3.5 3.3125 C-2.8503125 2.68988281 -2.200625 2.06726563 -1.53125 1.42578125 C-0.77328125 0.72001953 -0.77328125 0.72001953 0 0 Z " fill="#001420" transform="translate(891,539)"/>
<path d="M0 0 C0.99 0 1.98 0 3 0 C2.01 5.28 1.02 10.56 0 16 C-0.33 16 -0.66 16 -1 16 C-2.24327778 10.15659442 -1.57300962 5.73303505 0 0 Z " fill="#00C3D2" transform="translate(803,355)"/>
<path d="M0 0 C2.3828125 -0.29296875 2.3828125 -0.29296875 5.125 -0.1875 C6.03507813 -0.16042969 6.94515625 -0.13335938 7.8828125 -0.10546875 C8.58148437 -0.07066406 9.28015625 -0.03585937 10 0 C10 0.99 10 1.98 10 3 C6.04 3 2.08 3 -2 3 C-1.34 2.01 -0.68 1.02 0 0 Z " fill="#003169" transform="translate(839,875)"/>
<path d="M0 0 C0 0.66 0 1.32 0 2 C-1.43503555 2.36402369 -2.87316506 2.71586591 -4.3125 3.0625 C-5.11300781 3.25972656 -5.91351563 3.45695312 -6.73828125 3.66015625 C-9 4 -9 4 -12 3 C-7.89542386 0.01485372 -5.02254631 -0.2954439 0 0 Z " fill="#016ABE" transform="translate(463,293)"/>
<path d="M0 0 C0.33 0 0.66 0 1 0 C1 1.65 1 3.3 1 5 C1.66 5.33 2.32 5.66 3 6 C1.54077307 5.88590407 0.08259402 5.75834456 -1.375 5.625 C-2.59316406 5.52058594 -2.59316406 5.52058594 -3.8359375 5.4140625 C-6 5 -6 5 -8 3 C-6.576875 2.814375 -6.576875 2.814375 -5.125 2.625 C-1.91332809 2.28312823 -1.91332809 2.28312823 0 0 Z " fill="#015791" transform="translate(600,984)"/>
<path d="M0 0 C0.66 0.33 1.32 0.66 2 1 C-1.3 4.63 -4.6 8.26 -8 12 C-8.66 11.67 -9.32 11.34 -10 11 C-8.89718873 9.72799029 -7.79269231 8.45744147 -6.6875 7.1875 C-6.07261719 6.47980469 -5.45773437 5.77210938 -4.82421875 5.04296875 C-3.26665665 3.29863261 -1.67341125 1.63221959 0 0 Z " fill="#0071C7" transform="translate(585,227)"/>
<path d="M0 0 C0.68359375 1.796875 0.68359375 1.796875 1 4 C-0.21484375 5.703125 -0.21484375 5.703125 -1.9375 7.25 C-2.50339844 7.77078125 -3.06929687 8.2915625 -3.65234375 8.828125 C-4.09707031 9.21484375 -4.54179688 9.6015625 -5 10 C-5.99 9.67 -6.98 9.34 -8 9 C-7.50628906 8.51789062 -7.01257813 8.03578125 -6.50390625 7.5390625 C-5.86324219 6.90742187 -5.22257813 6.27578125 -4.5625 5.625 C-3.92441406 4.99851562 -3.28632812 4.37203125 -2.62890625 3.7265625 C-0.92117824 2.08276939 -0.92117824 2.08276939 0 0 Z " fill="#001823" transform="translate(915,514)"/>
<path d="M0 0 C0.680625 0.28875 1.36125 0.5775 2.0625 0.875 C0.66874928 3.66250144 -1.09994861 3.76766287 -3.9375 4.875 C-4.5975 5.535 -5.2575 6.195 -5.9375 6.875 C-8.0625 6.5 -8.0625 6.5 -9.9375 5.875 C-3.86310175 -0.16438731 -3.86310175 -0.16438731 0 0 Z " fill="#01A6C6" transform="translate(914.9375,422.125)"/>
<path d="M0 0 C0.66 0 1.32 0 2 0 C0.46757679 3.44795223 -1.44531701 6.2199038 -4 9 C-6.1328125 9.64453125 -6.1328125 9.64453125 -8 10 C-7.04367001 8.70684939 -6.08486149 7.41553147 -5.125 6.125 C-4.59132813 5.40570313 -4.05765625 4.68640625 -3.5078125 3.9453125 C-2 2 -2 2 0 0 Z " fill="#001620" transform="translate(556,409)"/>
<path d="M0 0 C0.99 0.33 1.98 0.66 3 1 C2.02501855 2.5027237 1.04490611 4.00211963 0.0625 5.5 C-0.48277344 6.3353125 -1.02804687 7.170625 -1.58984375 8.03125 C-2.05519531 8.6809375 -2.52054688 9.330625 -3 10 C-3.33 10 -3.66 10 -4 10 C-3.38461538 3.47692308 -3.38461538 3.47692308 -1.4375 1.0625 C-0.7259375 0.5365625 -0.7259375 0.5365625 0 0 Z " fill="#0065B6" transform="translate(523,270)"/>
<path d="M0 0 C2.3125 0.1875 2.3125 0.1875 4 1 C3.01 2.485 3.01 2.485 2 4 C1.34 4 0.68 4 0 4 C0 4.66 0 5.32 0 6 C-1.65 5.67 -3.3 5.34 -5 5 C-2.75 2.4375 -2.75 2.4375 0 0 Z " fill="#015288" transform="translate(768,972)"/>
<path d="M0 0 C0.33 1.32 0.66 2.64 1 4 C-0.9375 6.75 -0.9375 6.75 -3 9 C-3.99 8.67 -4.98 8.34 -6 8 C-4.02 5.36 -2.04 2.72 0 0 Z " fill="#001F2B" transform="translate(931,494)"/>
<path d="M0 0 C0.99 0.33 1.98 0.66 3 1 C0.03 3.64 -2.94 6.28 -6 9 C-6.66 8.67 -7.32 8.34 -8 8 C-5.36 5.36 -2.72 2.72 0 0 Z " fill="#01141F" transform="translate(935,344)"/>
<path d="M0 0 C-2 2 -2 2 -4.8203125 2.1953125 C-5.91085937 2.17210937 -7.00140625 2.14890625 -8.125 2.125 C-9.22070312 2.10695313 -10.31640625 2.08890625 -11.4453125 2.0703125 C-12.28835938 2.04710937 -13.13140625 2.02390625 -14 2 C-14 1.67 -14 1.34 -14 1 C-8.80451575 -1.20808081 -5.41735797 -0.93402724 0 0 Z " fill="#005489" transform="translate(650,989)"/>
<path d="M0 0 C0.99 0.33 1.98 0.66 3 1 C2.67 1.99 2.34 2.98 2 4 C2.66 4 3.32 4 4 4 C4 4.66 4 5.32 4 6 C4.99 6.33 5.98 6.66 7 7 C1.25 6.25 1.25 6.25 -1 4 C-0.625 1.875 -0.625 1.875 0 0 Z " fill="#00172D" transform="translate(763,965)"/>
<path d="M0 0 C0.33 0 0.66 0 1 0 C0.88655624 2.1464753 0.75893655 4.29220592 0.625 6.4375 C0.52058594 8.22994141 0.52058594 8.22994141 0.4140625 10.05859375 C0.27742188 11.02925781 0.14078125 11.99992188 0 13 C-0.99 13.495 -0.99 13.495 -2 14 C-2 10.37 -2 6.74 -2 3 C-1.34 3 -0.68 3 0 3 C0 2.01 0 1.02 0 0 Z " fill="#00DCE9" transform="translate(327,581)"/>
<path d="M0 0 C3.36591866 1.44253657 5.51047079 3.33264727 8 6 C7.67 6.99 7.34 7.98 7 9 C5.82737096 7.88121617 4.66204862 6.75476949 3.5 5.625 C2.8503125 4.99851562 2.200625 4.37203125 1.53125 3.7265625 C0 2 0 2 0 0 Z " fill="#001C22" transform="translate(507,516)"/>
<path d="M0 0 C0.66 0.33 1.32 0.66 2 1 C-0.64 3.97 -3.28 6.94 -6 10 C-6.33 9.01 -6.66 8.02 -7 7 C-4.69 4.69 -2.38 2.38 0 0 Z " fill="#02E7EE" transform="translate(907,343)"/>
<path d="M0 0 C0.66 0.99 1.32 1.98 2 3 C-0.64 5.31 -3.28 7.62 -6 10 C-6.66 9.67 -7.32 9.34 -8 9 C-5.36 6.03 -2.72 3.06 0 0 Z " fill="#001E26" transform="translate(946,331)"/>
<path d="M0 0 C-1.43011973 0.86646667 -2.86940619 1.71781829 -4.3125 2.5625 C-5.51326172 3.27599609 -5.51326172 3.27599609 -6.73828125 4.00390625 C-9 5 -9 5 -12 4 C-11.34 4 -10.68 4 -10 4 C-9.67 3.01 -9.34 2.02 -9 1 C-2.63157895 -1.31578947 -2.63157895 -1.31578947 0 0 Z " fill="#00E3EA" transform="translate(844,315)"/>
<path d="M0 0 C0 0.66 0 1.32 0 2 C-3.96 3.98 -3.96 3.98 -8 6 C-8.66 5.34 -9.32 4.68 -10 4 C-4.5 0 -4.5 0 0 0 Z " fill="#0165B6" transform="translate(450,297)"/>
<path d="M0 0 C0.99 0 1.98 0 3 0 C3 1.98 3 3.96 3 6 C2.01 5.34 1.02 4.68 0 4 C-2.0492094 3.54860541 -2.0492094 3.54860541 -4.1875 3.375 C-5.445625 3.25125 -6.70375 3.1275 -8 3 C-8 2.67 -8 2.34 -8 2 C-5.36 2 -2.72 2 0 2 C0 1.34 0 0.68 0 0 Z " fill="#004E84" transform="translate(535,962)"/>
<path d="M0 0 C0.66 0.99 1.32 1.98 2 3 C0.55746343 6.36591866 -1.33264727 8.51047079 -4 11 C-4.66 10.67 -5.32 10.34 -6 10 C-5.195625 9.0925 -4.39125 8.185 -3.5625 7.25 C-1.58857329 4.89690092 -0.36122533 3.13061954 0 0 Z " fill="#012A60" transform="translate(934,911)"/>
<path d="M0 0 C1.45823212 -0.0270043 2.91660675 -0.04639787 4.375 -0.0625 C5.18710937 -0.07410156 5.99921875 -0.08570313 6.8359375 -0.09765625 C9 0 9 0 11 1 C11 1.66 11 2.32 11 3 C9.54077307 2.88590407 8.08259402 2.75834456 6.625 2.625 C5.40683594 2.52058594 5.40683594 2.52058594 4.1640625 2.4140625 C2 2 2 2 0 0 Z " fill="#002C62" transform="translate(669,908)"/>
<path d="M0 0 C0.33 0 0.66 0 1 0 C0.94779297 0.93972656 0.94779297 0.93972656 0.89453125 1.8984375 C0.86746094 2.71570313 0.84039063 3.53296875 0.8125 4.375 C0.77769531 5.18710937 0.74289062 5.99921875 0.70703125 6.8359375 C0.80371094 7.55007813 0.90039062 8.26421875 1 9 C1.99 9.66 2.98 10.32 4 11 C2.35 11.33 0.7 11.66 -1 12 C-1.08159574 7.83861737 -0.98248524 4.0527516 0 0 Z " fill="#003473" transform="translate(783,897)"/>
<path d="M0 0 C2.97 0 5.94 0 9 0 C8.01 1.485 8.01 1.485 7 3 C5.0546875 3.29296875 5.0546875 3.29296875 2.875 3.1875 C1.59625 3.125625 0.3175 3.06375 -1 3 C-0.67 2.01 -0.34 1.02 0 0 Z " fill="#00AECA" transform="translate(489,710)"/>
<path d="M0 0 C0.99 0.33 1.98 0.66 3 1 C0.69 3.31 -1.62 5.62 -4 8 C-4.33 7.01 -4.66 6.02 -5 5 C-3.35 3.35 -1.7 1.7 0 0 Z " fill="#00121E" transform="translate(376,505)"/>
<path d="M0 0 C1.85772162 0.08984301 3.71247985 0.24611861 5.5625 0.4375 C7.08037109 0.59025391 7.08037109 0.59025391 8.62890625 0.74609375 C9.80259766 0.87177734 9.80259766 0.87177734 11 1 C11 1.33 11 1.66 11 2 C2.42857143 3.42857143 2.42857143 3.42857143 -1 1 C-0.67 0.67 -0.34 0.34 0 0 Z " fill="#01B6CB" transform="translate(404,679)"/>
<path d="M0 0 C0.66 0.33 1.32 0.66 2 1 C-0.475 4.465 -0.475 4.465 -3 8 C-3.99 7.67 -4.98 7.34 -6 7 C-4.02 4.69 -2.04 2.38 0 0 Z " fill="#01DCE6" transform="translate(339,535)"/>
<path d="M0 0 C1.1875 1.5625 1.1875 1.5625 2 4 C0.625 7.75 0.625 7.75 -1 11 C-2.41687119 6.74938644 -1.19320039 4.28148375 0 0 Z " fill="#00EAF1" transform="translate(944,404)"/>
<path d="M0 0 C0.99 0.33 1.98 0.66 3 1 C-0.465 3.97 -0.465 3.97 -4 7 C-4.66 6.34 -5.32 5.68 -6 5 C-5.01 5 -4.02 5 -3 5 C-2.5359375 4.0409375 -2.5359375 4.0409375 -2.0625 3.0625 C-1 1 -1 1 0 0 Z " fill="#002760" transform="translate(945,927)"/>
<path d="M0 0 C0.33 0 0.66 0 1 0 C3.27678571 8.03571429 3.27678571 8.03571429 2 12 C2 11.01 2 10.02 2 9 C1.34 9 0.68 9 0 9 C-0.84454356 5.62182575 -1.10844919 3.32534757 0 0 Z " fill="#00ACBC" transform="translate(326,614)"/>
<path d="M0 0 C0.33 0.66 0.66 1.32 1 2 C-0.4726862 5.27263601 -1.42695432 6.72014048 -4.6875 8.3125 C-5.450625 8.539375 -6.21375 8.76625 -7 9 C-6.02180976 7.68677212 -5.0424189 6.37443848 -4.0625 5.0625 C-3.51722656 4.33160156 -2.97195313 3.60070312 -2.41015625 2.84765625 C-1 1 -1 1 0 0 Z " fill="#001D29" transform="translate(558,598)"/>
<path d="M0 0 C3.6875 0.875 3.6875 0.875 7 2 C7 2.66 7 3.32 7 4 C3.7 3.34 0.4 2.68 -3 2 C-2.01 1.34 -1.02 0.68 0 0 Z " fill="#0092AE" transform="translate(842,451)"/>
<path d="M0 0 C-3.1254959 2.64465038 -6.08788267 3.84414715 -10 5 C-10 4.34 -10 3.68 -10 3 C-9.01 3 -8.02 3 -7 3 C-7 2.34 -7 1.68 -7 1 C-3.375 -1.125 -3.375 -1.125 0 0 Z " fill="#009EC2" transform="translate(902,447)"/>
<path d="M0 0 C-1.32 0.33 -2.64 0.66 -4 1 C-4 1.66 -4 2.32 -4 3 C-6.31 3.33 -8.62 3.66 -11 4 C-3.77464789 -1.88732394 -3.77464789 -1.88732394 0 0 Z " fill="#01C5CA" transform="translate(840,301)"/>
<path d="M0 0 C1.98 0 3.96 0 6 0 C4.35 1.65 2.7 3.3 1 5 C0.67 3.35 0.34 1.7 0 0 Z " fill="#00C6DA" transform="translate(493,836)"/>
<path d="M0 0 C0 0.33 0 0.66 0 1 C-5.16569441 2.79217969 -8.51053913 3.12029814 -14 2 C-14 1.67 -14 1.34 -14 1 C-9.23692563 0.04738513 -4.8333472 -0.08333357 0 0 Z " fill="#004554" transform="translate(527,709)"/>
<path d="M0 0 C3.36720387 1.39332574 4.9859524 2.9789286 7 6 C4 6 4 6 1.8125 4.125 C0 2 0 2 0 0 Z " fill="#001D25" transform="translate(501,537)"/>
<path d="M0 0 C4.39158329 1.4638611 4.87947433 3.97831338 7 8 C5.1875 7.9375 5.1875 7.9375 3 7 C1.25 3.4375 1.25 3.4375 0 0 Z " fill="#01BDC7" transform="translate(941,356)"/>
<path d="M0 0 C0.91007813 0.00902344 1.82015625 0.01804687 2.7578125 0.02734375 C3.45648437 0.03894531 4.15515625 0.05054688 4.875 0.0625 C4.875 0.3925 4.875 0.7225 4.875 1.0625 C3.44166979 1.45313507 2.00307321 1.82448474 0.5625 2.1875 C-0.63826172 2.50074219 -0.63826172 2.50074219 -1.86328125 2.8203125 C-4.125 3.0625 -4.125 3.0625 -7.125 1.0625 C-4.60024538 -0.19987731 -2.81299534 -0.03606404 0 0 Z " fill="#00F1F7" transform="translate(856.125,296.9375)"/>
<path d="M0 0 C0.99 0.66 1.98 1.32 3 2 C2.34 2.66 1.68 3.32 1 4 C1 4.33 1 4.66 1 5 C-0.65 5 -2.3 5 -4 5 C-2.25 1.125 -2.25 1.125 0 0 Z " fill="#0162A2" transform="translate(765,971)"/>
<path d="M0 0 C-0.66 1.32 -1.32 2.64 -2 4 C-4 4 -6 4 -8 4 C-4.5 0 -4.5 0 0 0 Z " fill="#013A7C" transform="translate(885,567)"/>
<path d="M0 0 C2.29633824 3.44450737 2.54016485 5.93812283 3 10 C2.67 9.34 2.34 8.68 2 8 C1.34 8 0.68 8 0 8 C0 5.36 0 2.72 0 0 Z " fill="#00AFBA" transform="translate(957,384)"/>
</svg>
